<svg width="73" height="73" viewBox="0 0 73 73" fill="none" xmlns="http://www.w3.org/2000/svg">
<rect x="0.443115" y="0.877441" width="72" height="72" rx="36" fill="url(#paint0_linear_1_218)"/>
<path d="M32.169 17.3426L34.3491 19.0637C33.3164 20.1346 32.628 21.1386 32.2838 22.0757C31.9396 23.0127 31.7674 23.9593 31.7674 24.9155L30.3905 23.9402H34.5786V29.9067H28.6694V25.7187C28.6694 24.1506 28.9276 22.6876 29.4439 21.3298C29.9603 19.9721 30.8686 18.643 32.169 17.3426ZM41.8073 17.3426L43.9874 19.0637C42.9547 20.1346 42.2662 21.1386 41.922 22.0757C41.5778 23.0127 41.4057 23.9593 41.4057 24.9155L40.0288 23.9402H44.2168V29.9067H38.3077V25.7187C38.3077 24.1506 38.5658 22.6876 39.0822 21.3298C39.5985 19.9721 40.5069 18.643 41.8073 17.3426Z" fill="white"/>
<defs>
<linearGradient id="paint0_linear_1_218" x1="72.4431" y1="36.8774" x2="0.443115" y2="36.8774" gradientUnits="userSpaceOnUse">
<stop stop-color="#C52C29"/>
<stop offset="0.5" stop-color="#E04A4A"/>
<stop offset="1" stop-color="#C52C29"/>
</linearGradient>
</defs>
</svg>
