<svg width="25" height="25" viewBox="0 0 25 25" fill="none" xmlns="http://www.w3.org/2000/svg">
<path d="M10.3331 2.58734C14.6531 2.58734 18.1731 6.10734 18.1731 10.4273C18.1731 14.7473 14.6531 18.2673 10.3331 18.2673C6.01307 18.2673 2.49307 14.7473 2.49307 10.4273C2.49307 6.10734 6.01307 2.58734 10.3331 2.58734ZM10.3331 0.987335C5.11707 0.987335 0.893066 5.21134 0.893066 10.4273C0.893066 15.6433 5.11707 19.8673 10.3331 19.8673C15.5491 19.8673 19.7731 15.6433 19.7731 10.4273C19.7731 5.21134 15.5491 0.987335 10.3331 0.987335Z" fill="#313131"/>
<path d="M16.0131 10.4273C16.0131 7.29134 13.4691 4.74734 10.3331 4.74734" stroke="#313131" stroke-width="1.6" stroke-miterlimit="10"/>
<path d="M16.2531 16.3473L22.8931 22.9873" stroke="#313131" stroke-width="1.6" stroke-miterlimit="10"/>
</svg>
