<svg width="46" height="47" viewBox="0 0 46 47" fill="none" xmlns="http://www.w3.org/2000/svg">
<path d="M18.0223 6.8191C18.0223 6.8191 18.7947 6.8191 20.3395 6.8191C21.8843 6.8191 23.7437 7.90616 25.9178 10.0803C28.092 12.2544 29.179 14.872 29.179 17.9329C29.179 20.9938 28.092 23.6114 25.9178 25.7855C23.7437 27.9596 21.1119 29.0467 18.0223 29.0467C14.9328 29.0467 12.3009 27.9596 10.1268 25.7855C7.95267 23.6114 6.86561 20.9938 6.86561 17.9329C6.86561 14.872 7.95267 12.2544 10.1268 10.0803C12.3009 7.90616 14.9328 6.8191 18.0223 6.8191ZM11.0708 10.9385C9.46884 12.4833 8.52481 14.357 8.23874 16.5598C7.95267 18.7625 8.32456 20.7793 9.35441 22.6101L12.0149 19.8639C11.786 19.5206 11.6716 19.1487 11.6716 18.7482C11.6716 18.1188 11.9004 17.5896 12.3581 17.1605C12.8159 16.7314 13.3594 16.5169 13.9887 16.5169C14.6181 16.5169 15.1473 16.7314 15.5764 17.1605C16.0055 17.5896 16.2201 18.1188 16.2201 18.7482V18.834L21.2835 20.3788C21.7412 19.6922 22.3706 19.3489 23.1716 19.3489C23.5721 19.3489 23.944 19.4634 24.2872 19.6922L27.7201 16.2594C27.3768 14.1997 26.4614 12.4261 24.9738 10.9385C23.0285 9.05044 20.6971 8.10641 17.9794 8.10641C15.2618 8.10641 12.9589 9.05044 11.0708 10.9385ZM24.2014 21.6661C24.2014 21.4945 24.1442 21.3228 24.0298 21.1512C23.9154 20.9795 23.7866 20.8508 23.6436 20.765C23.5006 20.6792 23.3432 20.6363 23.1716 20.6363C22.8855 20.6363 22.6423 20.7364 22.4421 20.9366C22.2418 21.1369 22.1417 21.3657 22.1417 21.6232C22.1417 21.8807 22.2418 22.1095 22.4421 22.3098C22.6423 22.51 22.8855 22.6101 23.1716 22.6101C23.4576 22.6101 23.7008 22.51 23.9011 22.3098C24.1013 22.1095 24.2014 21.895 24.2014 21.6661ZM14.9328 18.7482C14.9328 18.4621 14.8326 18.219 14.6324 18.0187C14.4321 17.8185 14.2176 17.7183 13.9887 17.7183C13.8171 17.7183 13.6455 17.7756 13.4738 17.89C13.3022 18.0044 13.1734 18.1332 13.0876 18.2762C13.0018 18.4192 12.9589 18.5766 12.9589 18.7482C12.9589 19.0343 13.059 19.2774 13.2593 19.4777C13.4595 19.6779 13.7027 19.778 13.9887 19.778C14.1604 19.778 14.3177 19.7208 14.4608 19.6064C14.6038 19.492 14.7182 19.3632 14.804 19.2202C14.8899 19.0772 14.9328 18.9198 14.9328 18.7482ZM17.9794 27.7594C17.9794 27.7594 18.6588 27.7594 20.0177 27.7594C21.3765 27.7594 23.0285 26.8011 24.9738 24.8844C26.9191 22.9677 27.8917 20.6649 27.8917 17.9758L25.1455 20.5504C25.3171 20.8937 25.4029 21.2656 25.4029 21.6661C25.4029 22.2955 25.1884 22.8247 24.7593 23.2538C24.3302 23.6829 23.8009 23.8975 23.1716 23.8975C22.5422 23.8975 22.013 23.6829 21.5839 23.2538C21.1548 22.8247 20.9402 22.2955 20.9402 21.6661V21.5803L15.8768 20.0355C15.4191 20.6649 14.7897 20.9795 13.9887 20.9795C13.5882 20.9795 13.2164 20.8937 12.8731 20.7221L10.041 23.7258C10.327 24.1263 10.6703 24.5268 11.0708 24.9273C12.9589 26.8154 15.2618 27.7594 17.9794 27.7594ZM12.3581 11.4534C13.5596 10.4808 14.9042 9.85143 16.3917 9.56536C17.8793 9.27929 19.3668 9.36511 20.8544 9.82283L20.4253 11.0243C17.7363 10.1089 15.3333 10.5666 13.2164 12.3975L12.3581 11.4534ZM22.485 10.5952C22.8855 10.8813 23.2574 11.1674 23.6007 11.4534L22.7425 12.3975C22.4564 12.1114 22.1417 11.8825 21.7984 11.7109L22.485 10.5952ZM19.4813 25.0989L19.8246 26.3004C19.1952 26.4149 18.5945 26.4721 18.0223 26.4721C16.9353 26.4721 15.8768 26.2718 14.8469 25.8713L15.2761 24.6698C16.6492 25.242 18.0509 25.385 19.4813 25.0989ZM33.8992 28.1027L44.9701 39.1736L39.0484 45.0952L27.9775 34.0243L28.9216 33.0803L26.6044 30.5915C24.0298 32.3651 21.1691 33.2519 18.0223 33.2519C13.7885 33.2519 10.1554 31.7644 7.12307 28.7892C6.77979 28.446 6.46511 28.1027 6.17904 27.7594L5.23501 28.7034C5.46386 29.0467 5.57829 29.4186 5.57829 29.8191C5.57829 30.4484 5.34944 30.9777 4.89173 31.4068C4.43401 31.8359 3.89048 32.0504 3.26113 32.0504C2.86063 32.0504 2.48874 31.9503 2.14546 31.7501C1.80217 31.5498 1.53041 31.2781 1.33016 30.9348C1.12991 30.5915 1.02979 30.2196 1.02979 29.8191C1.02979 29.1897 1.24434 28.6605 1.67344 28.2314C2.10255 27.8023 2.63178 27.5878 3.26113 27.5878C3.66163 27.5878 4.03352 27.6736 4.3768 27.8452L5.40665 26.7295C3.28974 23.7544 2.38862 20.3931 2.70329 16.6456C3.01797 12.8981 4.49123 9.7084 7.12307 7.07656C10.1554 4.10143 13.7885 2.61387 18.0223 2.61387C22.2562 2.61387 25.8606 4.10143 28.8358 7.07656C30.2661 8.5069 31.3818 10.1375 32.1828 11.9683L33.5559 10.5952C33.327 10.2519 33.2126 9.88004 33.2126 9.47954C33.2126 8.9074 33.4415 8.39248 33.8992 7.93476C34.3569 7.47705 34.9004 7.2482 35.5298 7.2482C35.9303 7.2482 36.3022 7.36263 36.6455 7.59148L40.5074 3.81536H38.6193V2.52805H42.6529V6.64745H41.4514V4.67357L37.5037 8.44969C37.6753 8.79298 37.7611 9.13626 37.7611 9.47954C37.7611 10.1089 37.5466 10.6524 37.1175 11.1101C36.6884 11.5679 36.1591 11.7967 35.5298 11.7967C35.1293 11.7967 34.7574 11.7109 34.4141 11.5392L32.6119 13.2557C33.3557 15.487 33.5559 17.7756 33.2126 20.1213C32.8693 22.4671 32.0397 24.6126 30.7238 26.5579L32.9552 29.0467L33.8992 28.1027ZM36.2164 8.83588C36.2164 8.83588 36.1734 8.78582 36.0876 8.6857C36.0018 8.58558 35.8159 8.53551 35.5298 8.53551C35.2437 8.53551 35.0006 8.63564 34.8003 8.83588C34.6001 9.03613 34.4999 9.26499 34.4999 9.52245C34.4999 9.77991 34.6001 10.0088 34.8003 10.209C35.0006 10.4093 35.2437 10.5094 35.5298 10.5094C35.7014 10.5094 35.8588 10.4665 36.0018 10.3807C36.1448 10.2948 36.2593 10.1804 36.3451 10.0374C36.4309 9.89434 36.4738 9.7084 36.4738 9.47954C36.4738 9.25069 36.388 9.03613 36.2164 8.83588ZM2.61747 30.5057C2.61747 30.5057 2.66753 30.5486 2.76766 30.6344C2.86778 30.7202 3.04658 30.7631 3.30404 30.7631C3.5615 30.7631 3.79036 30.6773 3.99061 30.5057C4.19086 30.334 4.29098 30.1052 4.29098 29.8191C4.29098 29.533 4.19086 29.2899 3.99061 29.0896C3.79036 28.8894 3.5615 28.7892 3.30404 28.7892C3.04658 28.7892 2.81772 28.8894 2.61747 29.0896C2.41722 29.2899 2.3171 29.533 2.3171 29.8191C2.3171 30.1052 2.41722 30.334 2.61747 30.5057ZM3.9477 17.9329C3.9477 17.9329 3.9477 18.9127 3.9477 20.8723C3.9477 22.8318 5.32083 25.1848 8.0671 27.931C10.8134 30.6773 14.1318 32.0504 18.0223 32.0504C21.9129 32.0504 25.2313 30.6773 27.9775 27.931C30.7238 25.1848 32.097 21.8521 32.097 17.9329C32.097 14.0137 30.7238 10.681 27.9775 7.93476C25.2313 5.1885 21.9129 3.81536 18.0223 3.81536C14.1318 3.81536 10.8134 5.1885 8.0671 7.93476C5.32083 10.681 3.9477 14.0137 3.9477 17.9329ZM27.6343 29.9049L29.7798 32.2221L32.097 29.9049L29.9514 27.5878C29.6081 28.0455 29.2506 28.4603 28.8787 28.8322C28.5068 29.204 28.092 29.5616 27.6343 29.9049ZM39.0484 43.293L43.1678 39.1736L33.8992 29.9049L29.7798 34.0243L39.0484 43.293ZM33.8992 31.7072L38.2761 36.1698L37.4178 37.0281L33.8992 33.5094L32.9552 34.4534L32.097 33.5952L33.8992 31.7072ZM39.3917 39.0878L38.4477 38.1437L39.3917 37.1997L40.3358 38.1437L39.3917 39.0878ZM7.89546 35.3116V33.9385H9.18277V35.3116H7.89546ZM7.89546 43.0355V41.6624H9.18277V43.0355H7.89546ZM18.3656 37.9721V36.5989H19.5671V37.9721H18.3656ZM36.4738 26.5579V25.1848H37.7611V26.5579H36.4738ZM37.9328 15.5728V14.1997H39.2201V15.5728H37.9328ZM42.138 21.4086V20.0355H43.4253V21.4086H42.138Z" fill="#C72127"/>
</svg>
