<svg width="46" height="47" viewBox="0 0 46 47" fill="none" xmlns="http://www.w3.org/2000/svg">
<path d="M22.6567 28.7034C23.0571 28.5317 23.3575 28.6605 23.5578 29.0896C23.758 29.5187 23.6579 29.8191 23.2574 29.9907C22.7425 30.2195 22.2275 30.4198 21.7126 30.5914L21.0261 33.8526C20.9116 34.3676 20.6542 34.7824 20.2537 35.097C19.8532 35.4117 19.3955 35.5691 18.8805 35.5691H16.9067C16.5634 35.5691 16.2487 35.4975 15.9626 35.3545C15.6766 35.2115 15.4191 35.0112 15.1902 34.7538C14.9614 34.4963 14.8183 34.1959 14.7611 33.8526L14.1604 30.5914C13.4738 30.3626 12.8159 30.1051 12.1865 29.8191L9.44023 31.6213C8.41038 32.3079 7.49496 32.222 6.69396 31.3638L5.23501 29.9907C4.43401 29.1325 4.34819 28.2171 4.97755 27.2444L6.86561 24.4123C6.52232 23.8402 6.23625 23.2108 6.0074 22.5243L2.7462 21.8377C2.23128 21.7233 1.81648 21.4658 1.5018 21.0653C1.18712 20.6648 1.02979 20.2071 1.02979 19.6922V17.7183C1.02979 17.2034 1.18712 16.7457 1.5018 16.3452C1.81648 15.9447 2.23128 15.6872 2.7462 15.5728L6.0074 14.972C6.23625 14.2855 6.52232 13.6275 6.86561 12.9982L4.97755 10.2519C4.34819 9.22203 4.43401 8.30661 5.23501 7.50562L6.69396 6.04666C7.49496 5.24567 8.41038 5.15985 9.44023 5.7892L12.1865 7.67726C12.8159 7.33398 13.4738 7.0479 14.1604 6.81905L14.7611 3.55786C14.8756 3.04293 15.133 2.62813 15.5335 2.31345C15.934 1.99878 16.3917 1.84144 16.9067 1.84144H18.8805C19.3955 1.84144 19.8532 1.99878 20.2537 2.31345C20.6542 2.62813 20.9116 3.04293 21.0261 3.55786L21.7126 6.81905C22.3992 7.0479 23.0285 7.33398 23.6007 7.67726L26.4328 5.7892C27.4054 5.15985 28.3208 5.24567 29.179 6.04666L30.5522 7.50562C31.4104 8.30661 31.4962 9.22203 30.8096 10.2519L29.0074 12.9982C29.2935 13.6275 29.5509 14.2855 29.7798 14.972L33.041 15.5728C33.5559 15.6872 33.9707 15.9447 34.2854 16.3452C34.6001 16.7457 34.7574 17.2034 34.7574 17.7183V19.6922C34.7574 20.2071 34.6001 20.6648 34.2854 21.0653C33.9707 21.4658 33.5559 21.7233 33.041 21.8377L29.7798 22.5243C29.6081 23.0392 29.4079 23.5541 29.179 24.0691C28.9502 24.5268 28.6355 24.6555 28.235 24.4552C27.8345 24.255 27.7201 23.9546 27.8917 23.5541C28.1778 22.9248 28.4067 22.324 28.5783 21.7519C28.6355 21.4658 28.8071 21.2942 29.0932 21.237L32.7835 20.4646C33.184 20.4074 33.3843 20.1499 33.3843 19.6922V17.7183C33.3843 17.3178 33.184 17.0603 32.7835 16.9459L29.0932 16.2593C28.8071 16.2021 28.6355 16.0305 28.5783 15.7444C28.3494 14.8862 28.0062 14.0566 27.5484 13.2556C27.434 13.0268 27.4626 12.7979 27.6343 12.569L29.694 9.4795C29.9228 9.13622 29.8942 8.79293 29.6081 8.44965L28.1492 7.07651C27.8631 6.79044 27.5484 6.76184 27.2052 6.99069L24.0298 9.05039C23.8009 9.22203 23.5721 9.22203 23.3432 9.05039C22.5422 8.64989 21.7412 8.30661 20.9402 8.02054C20.6542 7.96333 20.4825 7.79169 20.4253 7.50562L19.6529 3.81532C19.5957 3.41482 19.3382 3.21457 18.8805 3.21457H16.9067C16.5062 3.21457 16.2487 3.41482 16.1343 3.81532L15.4477 7.50562C15.3905 7.79169 15.2188 7.96333 14.9328 8.02054C14.0746 8.30661 13.245 8.64989 12.444 9.05039C12.2151 9.22203 11.9863 9.22203 11.7574 9.05039L8.66785 6.99069C8.32456 6.76184 7.98128 6.79044 7.63799 7.07651L6.26486 8.44965C5.97879 8.79293 5.95018 9.13622 6.17904 9.4795L8.23874 12.569C8.41038 12.7979 8.41038 13.0268 8.23874 13.2556C7.83824 14.0566 7.49496 14.8862 7.20889 15.7444C7.15168 16.0305 6.98003 16.2021 6.69396 16.2593L3.00367 16.9459C2.60317 17.0603 2.40292 17.3178 2.40292 17.7183V19.6922C2.40292 20.1499 2.60317 20.4074 3.00367 20.4646L6.69396 21.237C6.98003 21.2942 7.15168 21.4658 7.20889 21.7519C7.49496 22.5529 7.83824 23.3539 8.23874 24.1549C8.41038 24.3837 8.41038 24.6126 8.23874 24.8414L6.17904 28.0168C5.95018 28.3601 5.97879 28.6748 6.26486 28.9608L7.63799 30.4198C7.98128 30.7059 8.32456 30.7345 8.66785 30.5056L11.7574 28.4459C11.9863 28.2743 12.2151 28.2457 12.444 28.3601C13.245 28.8178 14.0746 29.1611 14.9328 29.3899C15.2188 29.4472 15.3905 29.6188 15.4477 29.9049L16.1343 33.5952C16.2487 33.9957 16.5062 34.1959 16.9067 34.1959H18.8805C19.3382 34.1959 19.5957 33.9957 19.6529 33.5952L20.4253 29.9049C20.4825 29.6188 20.6542 29.4472 20.9402 29.3899C21.5124 29.2183 22.0845 28.9894 22.6567 28.7034ZM23.944 22.6101C23.5435 22.3812 23.429 22.0666 23.6007 21.6661C24.0584 20.7506 24.2872 19.778 24.2872 18.7482C24.2872 16.9745 23.6722 15.4584 22.4421 14.1996C21.212 12.9409 19.7101 12.3116 17.9365 12.3116C16.1629 12.3116 14.6753 12.9123 13.4738 14.1138C13.1305 14.4571 12.7872 14.4571 12.444 14.1138C12.1007 13.7705 12.1007 13.4559 12.444 13.1698C13.9887 11.6822 15.8196 10.9385 17.9365 10.9385C20.0534 10.9385 21.8843 11.6965 23.429 13.2127C24.9738 14.7289 25.7462 16.574 25.7462 18.7482C25.7462 20.0069 25.4601 21.1797 24.888 22.2668C24.7164 22.5529 24.4875 22.6959 24.2014 22.6959C24.087 22.6959 24.0012 22.6673 23.944 22.6101ZM10.5559 16.1735C10.6703 15.7158 10.9564 15.5728 11.4141 15.7444C11.8718 15.9161 12.0149 16.2021 11.8432 16.6026C11.6144 17.2892 11.4999 18.0044 11.4999 18.7482C11.4999 20.5218 12.1293 22.0237 13.388 23.2538C14.6467 24.4839 16.1629 25.0989 17.9365 25.0989C19.3096 25.0989 20.5397 24.6984 21.6268 23.8974C22.0273 23.6686 22.3706 23.7401 22.6567 24.112C22.9427 24.4839 22.8855 24.7842 22.485 25.0131C21.1119 26.0429 19.5957 26.5579 17.9365 26.5579C15.7624 26.5579 13.9172 25.7855 12.4011 24.2407C10.8849 22.6959 10.1268 20.8651 10.1268 18.7482C10.1268 17.8327 10.2698 16.9745 10.5559 16.1735ZM43.597 32.1362C44.5124 32.3079 44.9701 32.8514 44.9701 33.7668V35.1399C44.9701 35.9982 44.5124 36.5417 43.597 36.7705L41.6231 37.1138C41.5086 37.5143 41.3656 37.8862 41.194 38.2295L42.3096 39.8601C42.8246 40.6611 42.7673 41.3763 42.138 42.0056L41.194 42.9496C40.5646 43.579 39.8494 43.6362 39.0484 43.1213L37.4178 42.0056C37.0746 42.1773 36.7027 42.3203 36.3022 42.4347L35.9589 44.4086C35.73 45.324 35.1865 45.7817 34.3283 45.7817H32.9552C32.0397 45.7817 31.4962 45.324 31.3246 44.4086L30.9813 42.4347C30.5808 42.3203 30.2089 42.1773 29.8656 42.0056L28.1492 43.1213C27.4054 43.6362 26.7188 43.579 26.0895 42.9496L25.1455 42.0056C24.5161 41.3763 24.4589 40.6611 24.9738 39.8601L26.0895 38.2295C25.9178 37.8862 25.7748 37.5143 25.6604 37.1138L23.6007 36.7705C22.7425 36.5417 22.3134 35.9982 22.3134 35.1399V33.7668C22.3134 32.8514 22.7425 32.3079 23.6007 32.1362H23.7723C24.23 32.0218 24.5018 32.1934 24.5876 32.6511C24.6734 33.1089 24.4875 33.3949 24.0298 33.5093H23.944C23.7723 33.5666 23.6865 33.6524 23.6865 33.7668V35.1399C23.6865 35.2544 23.7723 35.3402 23.944 35.3974L26.347 35.8265C26.633 35.8837 26.8047 36.0554 26.8619 36.3414C27.0335 36.9136 27.2338 37.4285 27.4626 37.8862C27.6343 38.1151 27.6343 38.3725 27.4626 38.6586L26.0895 40.6325C26.0323 40.8041 26.0609 40.9186 26.1753 40.9758L27.0335 41.9198C27.1479 42.0342 27.2624 42.0628 27.3768 42.0056L29.4365 40.6325C29.6654 40.4608 29.9228 40.4322 30.2089 40.5467C30.6666 40.8327 31.1815 41.0616 31.7537 41.2332C32.0397 41.2904 32.2114 41.4621 32.2686 41.7482L32.6977 44.1511C32.7549 44.3228 32.8407 44.4086 32.9552 44.4086H34.3283C34.4427 44.4086 34.5285 44.3228 34.5858 44.1511L35.0149 41.7482C35.0721 41.4621 35.2437 41.2904 35.5298 41.2332C36.1019 41.0616 36.6169 40.8327 37.0746 40.5467C37.3034 40.4322 37.5609 40.4608 37.847 40.6325L39.8208 42.0056C39.9925 42.0628 40.1069 42.0342 40.1641 41.9198L41.1081 40.9758C41.2226 40.9186 41.2512 40.8041 41.194 40.6325L39.8208 38.6586C39.6492 38.3725 39.6206 38.1151 39.735 37.8862C40.0211 37.4285 40.2499 36.9136 40.4216 36.3414C40.4788 36.0554 40.6504 35.8837 40.9365 35.8265L43.3395 35.3974C43.5111 35.3402 43.597 35.2544 43.597 35.1399V33.7668C43.597 33.6524 43.5111 33.5666 43.3395 33.5093L40.9365 33.0802C40.6504 33.023 40.4788 32.8514 40.4216 32.5653C40.2499 31.9932 40.0211 31.4783 39.735 31.0205C39.6206 30.7345 39.6492 30.477 39.8208 30.2482L41.194 28.1885C41.2512 28.074 41.2226 27.9596 41.1081 27.8452L40.1641 26.987C40.1069 26.8725 39.9925 26.8439 39.8208 26.9011L37.847 28.2743C37.5609 28.4459 37.3034 28.4459 37.0746 28.2743C36.6169 28.0454 36.1019 27.8452 35.5298 27.6735C35.2437 27.6163 35.0721 27.4447 35.0149 27.1586L34.5858 24.7556C34.5285 24.584 34.4427 24.4982 34.3283 24.4982H32.9552C32.8407 24.4982 32.7549 24.584 32.6977 24.7556L32.2686 27.1586C32.2114 27.4447 32.0397 27.6163 31.7537 27.6735C31.1815 27.8452 30.6666 28.0454 30.2089 28.2743C29.9228 28.4459 29.6654 28.4459 29.4365 28.2743L27.3768 26.9011C27.2624 26.8439 27.1479 26.8725 27.0335 26.987L26.1753 27.8452C26.0609 27.9596 26.0323 28.074 26.0895 28.1885L27.4626 30.2482C27.6343 30.477 27.6343 30.7345 27.4626 31.0205C27.2338 31.4783 27.0335 31.9932 26.8619 32.5653C26.7474 33.023 26.4614 33.1804 26.0037 33.0373C25.546 32.8943 25.3743 32.5939 25.4887 32.1362C25.6604 31.6785 25.8606 31.1922 26.0895 30.6773L24.9738 28.9608C24.4589 28.2171 24.5161 27.5305 25.1455 26.9011L26.0895 25.9571C26.7188 25.3278 27.4054 25.2705 28.1492 25.7855L29.8656 26.9011C30.2089 26.7295 30.5808 26.5865 30.9813 26.472L31.3246 24.4123C31.4962 23.5541 32.0397 23.125 32.9552 23.125H34.3283C35.1865 23.125 35.73 23.5541 35.9589 24.4123L36.3022 26.472C36.7027 26.5865 37.0746 26.7295 37.4178 26.9011L39.0484 25.7855C39.8494 25.2705 40.5646 25.3278 41.194 25.9571L42.138 26.9011C42.7673 27.5305 42.8246 28.2171 42.3096 28.9608L41.194 30.6773C41.3656 31.0205 41.5086 31.3924 41.6231 31.7929L43.597 32.1362ZM35.4011 32.6941C35.4011 32.6941 35.2795 32.5725 35.0363 32.3293C34.7932 32.0862 34.3283 31.9646 33.6417 31.9646C32.9552 31.9646 32.3687 32.2077 31.8824 32.6941C31.3961 33.1804 31.1529 33.7668 31.1529 34.4534C31.1529 35.1399 31.3961 35.7264 31.8824 36.2127C32.3687 36.699 32.9552 36.9422 33.6417 36.9422C34.2139 36.9422 34.7288 36.7705 35.1865 36.4273C35.5298 36.1412 35.8445 36.1841 36.1305 36.556C36.4166 36.9279 36.388 37.2569 36.0447 37.5429C35.3009 38.0579 34.4999 38.3153 33.6417 38.3153C32.5547 38.3153 31.6392 37.9434 30.8955 37.1996C30.1517 36.4559 29.7798 35.5404 29.7798 34.4534C29.7798 33.3663 30.1517 32.4509 30.8955 31.7071C31.6392 30.9633 32.5547 30.5914 33.6417 30.5914C34.7288 30.5914 35.6442 30.9633 36.388 31.7071C37.1318 32.4509 37.5037 33.3663 37.5037 34.4534C37.5037 34.9111 37.2748 35.1399 36.8171 35.1399C36.3594 35.1399 36.1305 34.9111 36.1305 34.4534C36.1305 33.7668 35.8874 33.1804 35.4011 32.6941ZM22.1417 18.7482C22.1417 19.8924 21.7269 20.8794 20.8973 21.709C20.0677 22.5386 19.0665 22.9534 17.8936 22.9534C16.7207 22.9534 15.7195 22.5386 14.8899 21.709C14.0603 20.8794 13.6455 19.8924 13.6455 18.7482C13.6455 18.176 13.7599 17.6182 13.9887 17.0746C14.2176 16.5311 14.518 16.0734 14.8899 15.7015C15.2618 15.3296 15.7195 15.0292 16.263 14.8004C16.8065 14.5715 17.3644 14.4571 17.9365 14.4571C18.6803 14.4571 19.3812 14.6574 20.0391 15.0579C20.6971 15.4584 21.212 15.9733 21.5839 16.6026C21.9558 17.232 22.1417 17.9472 22.1417 18.7482ZM15.9197 16.7314C15.9197 16.7314 15.7838 16.8672 15.5121 17.139C15.2403 17.4108 15.1044 17.9329 15.1044 18.7052C15.1044 19.4776 15.3762 20.1499 15.9197 20.722C16.4632 21.2942 17.1212 21.5802 17.8936 21.5802C18.666 21.5802 19.3382 21.2942 19.9104 20.722C20.4825 20.1499 20.7686 19.4776 20.7686 18.7052C20.7686 17.9329 20.4825 17.2749 19.9104 16.7314C19.3382 16.1878 18.666 15.9161 17.8936 15.9161C17.1212 15.9161 16.4632 16.1878 15.9197 16.7314Z" fill="#C72127"/>
</svg>
