<svg width="18" height="41" viewBox="0 0 18 41" fill="none" xmlns="http://www.w3.org/2000/svg">
<path d="M15.1523 17.0215C15.2695 17.1621 15.3281 17.3203 15.3281 17.4961C15.3281 17.6719 15.2637 17.8184 15.1348 17.9355C15.0059 18.0527 14.8535 18.1113 14.6777 18.1113C14.502 18.1113 14.3555 18.0527 14.2383 17.9355L9.63281 13.3301V28.5176C9.63281 28.6816 9.57422 28.8281 9.45703 28.957C9.33984 29.0859 9.19336 29.1504 9.01758 29.1504C8.8418 29.1504 8.68945 29.0859 8.56055 28.957C8.43164 28.8281 8.36719 28.6816 8.36719 28.5176V13.3301L3.76172 17.9355C3.64453 18.0527 3.49805 18.1113 3.32227 18.1113C3.14648 18.1113 2.99414 18.0469 2.86523 17.918C2.73633 17.7891 2.67188 17.6426 2.67188 17.4785C2.67188 17.3145 2.73047 17.1621 2.84766 17.0215L8.54297 11.3262C8.66016 11.209 8.8125 11.1504 9 11.1504C9.1875 11.1504 9.33984 11.209 9.45703 11.3262L15.1523 17.0215Z" fill="white"/>
</svg>
