<svg width="51" height="51" viewBox="0 0 51 51" fill="none" xmlns="http://www.w3.org/2000/svg">
<path d="M27.7752 38.4539C28.2727 38.4539 28.5215 38.7027 28.5215 39.2002C28.5215 39.6977 28.2727 39.9464 27.7752 39.9464H23.2043C22.6446 39.9464 22.3647 39.6977 22.3647 39.2002C22.3647 38.7027 22.6446 38.4539 23.2043 38.4539H27.7752ZM49.3237 42.092C49.3237 42.092 49.3237 42.1075 49.3237 42.1386C49.3237 42.1697 49.3237 42.2164 49.3237 42.2785V43.7711C49.3237 44.8283 48.9506 45.73 48.2043 46.4763C47.458 47.2226 46.5563 47.5957 45.4991 47.5957H5.38713C4.32991 47.5957 3.42817 47.2226 2.6819 46.4763C1.93563 45.73 1.5625 44.8283 1.5625 43.7711V42.2785C1.5625 42.2164 1.5625 42.1697 1.5625 42.1386C1.5625 42.1075 1.5625 42.0764 1.5625 42.0453C1.5625 42.0142 1.5625 41.9987 1.5625 41.9987H1.65578C1.65578 41.9365 1.65578 41.9054 1.65578 41.9054L5.85354 33.883V11.8681C5.85354 10.8109 6.22668 9.92468 6.97295 9.20951C7.71922 8.49434 8.62096 8.13675 9.67817 8.13675H39.9021C40.3996 8.13675 40.6483 8.38551 40.6483 8.88302C40.6483 9.38053 40.3996 9.62929 39.9021 9.62929H9.67817C9.05628 9.62929 8.52767 9.84695 8.09235 10.2823C7.65703 10.7176 7.43937 11.2462 7.43937 11.8681V33.3233H43.4468V13.1741C43.4468 12.6766 43.7111 12.4278 44.2397 12.4278C44.7683 12.4278 45.0326 12.6766 45.0326 13.1741V33.883C47.8312 39.2313 49.2304 41.9054 49.2304 41.9054C49.2304 41.9054 49.2304 41.9365 49.2304 41.9987H49.3237C49.3237 41.9987 49.3237 42.0298 49.3237 42.092ZM7.06623 34.9091L3.61474 41.439H47.2715L43.82 34.9091H7.06623ZM45.4991 46.0099C46.121 46.0099 46.6651 45.7922 47.1315 45.3569C47.5979 44.9216 47.8312 44.393 47.8312 43.7711V43.0248H3.05504V43.7711C3.05504 44.393 3.28825 44.9216 3.75466 45.3569C4.22108 45.7922 4.76524 46.0099 5.38713 46.0099H45.4991ZM44.4729 5.33824C43.9754 5.33824 43.7267 5.07394 43.7267 4.54533C43.7267 4.01672 43.9754 3.75242 44.4729 3.75242H48.5774C49.0749 3.75242 49.3237 4.00118 49.3237 4.49869V8.60317C49.3237 9.10068 49.0749 9.34944 48.5774 9.34944C48.0799 9.34944 47.8312 9.10068 47.8312 8.60317V6.36436L29.0812 25.1144C28.708 25.4875 28.3349 25.4875 27.9618 25.1144L22.3647 19.5173L10.2379 31.6442C10.1135 31.7686 9.94247 31.8308 9.72481 31.8308C9.50715 31.8308 9.30504 31.7686 9.11847 31.6442C8.80752 31.2711 8.80752 30.8979 9.11847 30.5248L21.805 17.8382C22.1782 17.4651 22.5513 17.4651 22.9244 17.8382L28.5215 23.5285L46.7118 5.33824H44.4729Z" fill="#C72127"/>
</svg>
