<svg width="53" height="54" viewBox="0 0 53 54" fill="none" xmlns="http://www.w3.org/2000/svg">
<path d="M22.9823 45.5569C23.7074 45.7546 24.3337 46.1666 24.861 46.7929C25.3884 47.4191 25.6521 48.1607 25.6521 49.0177C25.6521 49.9406 25.306 50.7481 24.6138 51.4403C23.9217 52.1324 23.0977 52.4785 22.1418 52.4785C21.186 52.4785 20.362 52.1324 19.6698 51.4403C18.9776 50.7481 18.6316 49.9406 18.6316 49.0177C18.6316 48.1607 18.8788 47.4191 19.3732 46.7929C19.8676 46.1666 20.5103 45.7546 21.3013 45.5569V33.3946H16.7528C16.2255 33.3946 15.9618 33.1309 15.9618 32.6035C15.9618 32.0762 16.2255 31.8125 16.7528 31.8125H22.0924C22.6857 31.8125 22.9823 32.0762 22.9823 32.6035V45.5569ZM21.153 50.6492C21.153 50.6492 21.2272 50.6904 21.3755 50.7728C21.5238 50.8552 21.7793 50.8964 22.1418 50.8964C22.5044 50.8964 22.8175 50.814 23.0812 50.6492C23.3449 50.4844 23.5591 50.2537 23.7239 49.9571C23.8887 49.6604 23.9711 49.3473 23.9711 49.0177C23.9711 48.4903 23.7898 48.0454 23.4273 47.6828C23.0647 47.3202 22.6362 47.139 22.1418 47.139C21.6474 47.139 21.2025 47.3202 20.8069 47.6828C20.4114 48.0454 20.2137 48.4903 20.2137 49.0177C20.2137 49.3473 20.2961 49.6604 20.4609 49.9571C20.6257 50.2537 20.8564 50.4844 21.153 50.6492ZM31.5849 45.5569C32.376 45.7546 33.0187 46.1666 33.5131 46.7929C34.0075 47.4191 34.2547 48.1607 34.2547 49.0177C34.2547 49.9406 33.9086 50.7481 33.2165 51.4403C32.5243 52.1324 31.7003 52.4785 30.7444 52.4785C29.7886 52.4785 28.9646 52.1324 28.2724 51.4403C27.5803 50.7481 27.2342 49.9406 27.2342 49.0177C27.2342 48.1607 27.4979 47.4191 28.0252 46.7929C28.5526 46.1666 29.1788 45.7546 29.904 45.5569V33.3946H25.3554C24.8281 33.3946 24.5644 33.1309 24.5644 32.6035C24.5644 32.0762 24.8281 31.8125 25.3554 31.8125H30.7939C31.3212 31.8125 31.5849 32.0762 31.5849 32.6035V45.5569ZM29.8051 50.6492C29.8051 50.6492 29.871 50.6904 30.0028 50.7728C30.1347 50.8552 30.3819 50.8964 30.7444 50.8964C31.107 50.8964 31.4366 50.814 31.7332 50.6492C32.0299 50.4844 32.2606 50.2537 32.4254 49.9571C32.5902 49.6604 32.6726 49.3473 32.6726 49.0177C32.6726 48.4903 32.4748 48.0454 32.0793 47.6828C31.6838 47.3202 31.2388 47.139 30.7444 47.139C30.25 47.139 29.8216 47.3202 29.459 47.6828C29.0964 48.0454 28.9151 48.4903 28.9151 49.0177C28.9151 49.3473 28.9975 49.6604 29.1623 49.9571C29.3271 50.2537 29.5414 50.4844 29.8051 50.6492ZM45.3293 40.1184C46.2522 40.1184 47.0597 40.448 47.7519 41.1072C48.4441 41.7665 48.7901 42.5905 48.7901 43.5793C48.7901 44.5681 48.4441 45.4086 47.7519 46.1007C47.0597 46.7929 46.2522 47.139 45.3293 47.139C44.4724 47.139 43.7308 46.8753 43.1045 46.3479C42.4783 45.8206 42.0663 45.1614 41.8685 44.3703H39.3965C38.8691 44.3703 38.6054 44.1066 38.6054 43.5793V33.3946H33.9581C33.4307 33.3946 33.167 33.1309 33.167 32.6035C33.167 32.0762 33.4307 31.8125 33.9581 31.8125H39.3965C39.9239 31.8125 40.1875 32.0762 40.1875 32.6035V42.7882H41.8685C42.0663 41.9972 42.4783 41.3544 43.1045 40.86C43.7308 40.3656 44.4724 40.1184 45.3293 40.1184ZM45.3293 45.458C45.8567 45.458 46.3017 45.2767 46.6642 44.9141C47.0268 44.5516 47.2081 44.1066 47.2081 43.5793C47.2081 43.0519 47.0268 42.6069 46.6642 42.2444C46.3017 41.8818 45.8567 41.7005 45.3293 41.7005C44.802 41.7005 44.357 41.8818 43.9944 42.2444C43.6319 42.6069 43.4506 43.0519 43.4506 43.5793C43.4506 43.9089 43.533 44.222 43.6978 44.5186C43.8626 44.8153 44.0768 45.046 44.3405 45.2108C44.6042 45.3756 44.9338 45.458 45.3293 45.458ZM49.8778 19.2546C51.1303 20.8367 51.7566 22.6495 51.7566 24.6931C51.7566 27.1321 50.8996 29.1921 49.1857 30.8731C47.4717 32.5541 45.4282 33.3946 43.0551 33.3946H42.5607C42.0333 33.3946 41.7696 33.1309 41.7696 32.6035C41.7696 32.0762 42.0333 31.8125 42.5607 31.8125H43.0551C43.7143 31.8125 44.3405 31.7301 44.9338 31.5653C45.5271 31.4005 46.0874 31.1697 46.6148 30.8731C47.1421 30.5765 47.6201 30.1974 48.0485 29.736C48.477 29.2745 48.8396 28.7966 49.1362 28.3022C49.4329 27.8078 49.6801 27.2475 49.8778 26.6212C50.0756 25.995 50.1745 25.3523 50.1745 24.6931C50.1745 23.0451 49.6636 21.5783 48.6418 20.2929C47.6201 19.0074 46.2852 18.1669 44.6372 17.7714C44.2416 17.7055 44.0439 17.4418 44.0439 16.9804C43.978 13.2888 42.6101 10.1082 39.9403 7.4384C37.2706 4.76863 34.0569 3.43374 30.2995 3.43374C27.8604 3.43374 25.5697 4.07646 23.4273 5.36191C21.2849 6.64736 19.5874 8.37777 18.3349 10.5531C18.1372 10.9487 17.8076 11.0475 17.3461 10.8498C16.6869 10.5861 15.9618 10.4543 15.1707 10.4543C13.8523 10.4543 12.6822 10.8992 11.6605 11.7892C10.6387 12.6791 10.0619 13.7832 9.93007 15.1017C9.86415 15.4972 9.63343 15.7279 9.23791 15.7938C7.39214 16.1893 5.84301 17.1287 4.59052 18.6119C3.33803 20.0951 2.71179 21.7926 2.71179 23.7043C2.71179 25.9456 3.50283 27.8572 5.08492 29.4393C6.66701 31.0214 8.5787 31.8125 10.82 31.8125H13.4898C14.0171 31.8125 14.2808 32.0762 14.2808 32.6035V43.5793C14.2808 44.1066 14.0171 44.3703 13.4898 44.3703H11.0178C10.82 45.1614 10.408 45.8206 9.78175 46.3479C9.15551 46.8753 8.4139 47.139 7.55694 47.139C6.63405 47.139 5.82653 46.7929 5.13436 46.1007C4.4422 45.4086 4.09612 44.5681 4.09612 43.5793C4.09612 42.5905 4.4422 41.7665 5.13436 41.1072C5.82653 40.448 6.63405 40.1184 7.55694 40.1184C8.4139 40.1184 9.15551 40.3656 9.78175 40.86C10.408 41.3544 10.82 41.9972 11.0178 42.7882H12.6987V33.3946H10.82C8.18318 33.3946 5.90893 32.4552 3.99724 30.5765C2.08555 28.6977 1.1297 26.407 1.1297 23.7043C1.1297 21.5289 1.80538 19.5678 3.15675 17.8209C4.50812 16.074 6.23853 14.9039 8.34798 14.3106C8.74351 12.7285 9.56751 11.4266 10.82 10.4048C12.0725 9.38306 13.5227 8.87217 15.1707 8.87217C15.8959 8.87217 16.621 8.97105 17.3461 9.16881C18.269 7.65265 19.4061 6.35072 20.7575 5.26303C22.1089 4.17534 23.6086 3.33486 25.2566 2.74158C26.9046 2.14829 28.5855 1.85165 30.2995 1.85165C34.5184 1.85165 38.111 3.33486 41.0775 6.30128C43.912 9.06993 45.4282 12.4319 45.626 16.3871C47.3399 16.9145 48.7572 17.8703 49.8778 19.2546ZM6.22205 44.9141C6.22205 44.9141 6.31269 45.0048 6.49397 45.1861C6.67525 45.3674 7.02958 45.458 7.55694 45.458C8.0843 45.458 8.52926 45.2767 8.89183 44.9141C9.25439 44.5516 9.43567 44.1066 9.43567 43.5793C9.43567 43.0519 9.25439 42.6069 8.89183 42.2444C8.52926 41.8818 8.0843 41.7005 7.55694 41.7005C7.22734 41.7005 6.91421 41.7829 6.61757 41.9477C6.32093 42.1125 6.09021 42.3433 5.92541 42.6399C5.76061 42.9365 5.67821 43.2497 5.67821 43.5793C5.67821 44.1066 5.85949 44.5516 6.22205 44.9141ZM41.3741 17.0793C41.3741 17.6066 41.0939 17.8703 40.5336 17.8703C39.9733 17.8703 39.6931 17.6066 39.6931 17.0793C39.6931 15.9586 39.4954 14.838 39.0998 13.7173C38.9021 13.2559 39.0504 12.9263 39.5448 12.7285C40.0392 12.5308 40.3853 12.6626 40.5831 13.124C41.0445 14.3765 41.3082 15.6949 41.3741 17.0793ZM37.6166 11.2453C35.7049 8.93809 33.2659 7.78449 30.2995 7.78449C29.7721 7.78449 29.5084 7.5208 29.5084 6.99344C29.5084 6.46608 29.7721 6.2024 30.2995 6.2024C33.7933 6.2024 36.6278 7.5208 38.8032 10.1576C39.1328 10.5531 39.0998 10.9487 38.7043 11.3442C38.5725 11.4101 38.4077 11.4431 38.2099 11.4431C37.9462 11.4431 37.7485 11.3771 37.6166 11.2453Z" fill="#C72127"/>
</svg>
