<svg width="16" height="16" viewBox="0 0 16 16" fill="none" xmlns="http://www.w3.org/2000/svg">
<g clip-path="url(#clip0_4_739)">
<path d="M10.4908 3.10387L15.0244 7.63745C15.1177 7.73074 15.1643 7.85201 15.1643 8.00126C15.1643 8.15051 15.1177 8.27178 15.0244 8.36507L10.4908 12.8986C10.3975 12.9919 10.2762 13.0386 10.127 13.0386C9.97773 13.0386 9.85646 12.9873 9.76318 12.8847C9.66989 12.782 9.62325 12.6608 9.62325 12.5209C9.62325 12.3809 9.66989 12.2643 9.76318 12.171L13.4292 8.50499H1.33967C1.24639 8.50499 1.16243 8.48167 1.0878 8.43503C1.01318 8.38839 0.952542 8.32775 0.9059 8.25313C0.859258 8.1785 0.835938 8.09454 0.835938 8.00126C0.835938 7.85201 0.887243 7.73074 0.989855 7.63745C1.09247 7.54417 1.20907 7.49753 1.33967 7.49753H13.4292L9.76318 3.83148C9.66989 3.7382 9.62325 3.6216 9.62325 3.48167C9.62325 3.34175 9.66989 3.22048 9.76318 3.11786C9.85646 3.01525 9.97773 2.96395 10.127 2.96395C10.2762 2.96395 10.3975 3.01059 10.4908 3.10387Z" fill="white"/>
</g>
<defs>
<clipPath id="clip0_4_739">
<rect width="15.17" height="15" fill="white" transform="matrix(1 0 0 -1 0.415039 15.4453)"/>
</clipPath>
</defs>
</svg>
