<svg width="45" height="46" viewBox="0 0 45 46" fill="none" xmlns="http://www.w3.org/2000/svg">
<g clip-path="url(#clip0_2_486)">
<path d="M29.0485 27.7617C29.1045 27.9296 29.1045 28.0695 29.0485 28.1814L23.0877 39.9352C22.9757 40.215 22.7798 40.3549 22.5 40.3549C22.2201 40.3549 22.0242 40.215 21.9123 39.9352L15.9515 28.1814C15.8955 28.0695 15.8955 27.9296 15.9515 27.7617L17.7985 16.0079C17.7985 15.9519 17.7985 15.896 17.7985 15.84L16.875 2.9109C16.875 2.68702 16.9449 2.50512 17.0849 2.3652C17.2248 2.22527 17.3787 2.15531 17.5466 2.15531H27.7052C27.9291 2.15531 28.111 2.22527 28.2509 2.3652C28.3908 2.50512 28.4328 2.68702 28.3768 2.9109L27.2854 16.0919L29.0485 27.7617ZM26.9496 3.49859H18.3022L19.1418 15.4202H25.9421L26.9496 3.49859ZM21.1987 25.8727C21.1987 25.8727 21.2896 25.9636 21.4715 26.1455C21.6534 26.3274 21.9962 26.4184 22.5 26.4184C23.0037 26.4184 23.4375 26.2365 23.8013 25.8727C24.1651 25.5089 24.347 25.0751 24.347 24.5714C24.347 24.0676 24.1651 23.6199 23.8013 23.2281C23.4375 22.8363 23.0037 22.6404 22.5 22.6404C21.9962 22.6404 21.5625 22.8363 21.1987 23.2281C20.8349 23.6199 20.653 24.0676 20.653 24.5714C20.653 25.0751 20.8349 25.5089 21.1987 25.8727ZM23.1716 36.7449L27.7052 27.7617L25.9421 16.7635H19.0578L17.2948 27.7617L21.8283 36.7449V27.7617C21.3246 27.6497 20.8768 27.4398 20.4851 27.132C20.0933 26.8242 19.7854 26.4464 19.5615 25.9986C19.3377 25.5508 19.2257 25.0751 19.2257 24.5714C19.2257 23.6758 19.5476 22.9062 20.1912 22.2626C20.8349 21.6189 21.6045 21.2971 22.5 21.2971C23.3955 21.2971 24.1651 21.6189 24.8087 22.2626C25.4524 22.9062 25.7742 23.6758 25.7742 24.5714C25.7742 25.3549 25.5224 26.0406 25.0186 26.6283C24.5149 27.2159 23.8992 27.5937 23.1716 27.7617V36.7449ZM36.1007 40.1031C36.5485 40.1031 36.7724 40.3269 36.7724 40.7747V44.4687C36.7724 44.9165 36.5485 45.1404 36.1007 45.1404H32.4067C31.9589 45.1404 31.7351 44.9165 31.7351 44.4687V43.2934H13.2649V44.4687C13.2649 44.9165 13.041 45.1404 12.5933 45.1404H8.89924C8.45147 45.1404 8.22759 44.9165 8.22759 44.4687V40.7747C8.22759 40.3269 8.45147 40.1031 8.89924 40.1031H12.5933C13.041 40.1031 13.2649 40.3269 13.2649 40.7747V41.9501H31.7351V40.7747C31.7351 40.3269 31.9589 40.1031 32.4067 40.1031H36.1007ZM11.8377 43.7971V41.4464H9.57088V43.7971H11.8377ZM35.4291 43.7971V41.4464H33.1623V43.7971H35.4291ZM38.7873 24.2355C38.7873 23.7318 39.0112 23.4799 39.4589 23.4799C39.9067 23.4799 40.1306 23.7318 40.1306 24.2355C40.1306 29.049 38.4095 33.1908 34.9673 36.6609C31.5252 40.1311 27.3694 41.8661 22.5 41.8661C19.3097 41.8661 16.3573 41.0686 13.6427 39.4734C10.9282 37.8783 8.7873 35.7374 7.22013 33.0508C5.65297 30.3643 4.86938 27.4258 4.86938 24.2355C4.86938 23.7318 5.09327 23.4799 5.54103 23.4799C5.98879 23.4799 6.21267 23.7318 6.21267 24.2355C6.21267 28.7131 7.80782 32.5331 10.9981 35.6954C14.1884 38.8577 18.0224 40.4389 22.5 40.4389C26.9776 40.4389 30.8115 38.8577 34.0018 35.6954C37.1921 32.5331 38.7873 28.7131 38.7873 24.2355Z" fill="#C72127"/>
</g>
<defs>
<clipPath id="clip0_2_486">
<rect width="45" height="45" fill="white" transform="matrix(1 0 0 -1 0 45.98)"/>
</clipPath>
</defs>
</svg>
