<svg width="45" height="46" viewBox="0 0 45 46" fill="none" xmlns="http://www.w3.org/2000/svg">
<path d="M2.01495 10.215C2.01495 9.3195 2.32279 8.5779 2.93846 7.99021C3.55413 7.40253 4.28174 7.10868 5.1213 7.10868H39.8788C40.7183 7.10868 41.4459 7.40253 42.0616 7.99021C42.6773 8.5779 42.9851 9.3195 42.9851 10.215V37.1647C42.9851 38.0042 42.6773 38.7318 42.0616 39.3475C41.4459 39.9632 40.7183 40.271 39.8788 40.271H5.1213C4.28174 40.271 3.55413 39.9632 2.93846 39.3475C2.32279 38.7318 2.01495 38.0042 2.01495 37.1647V10.215ZM39.8788 38.1721C40.1586 38.1721 40.3965 38.0742 40.5924 37.8783C40.7883 37.6824 40.8862 37.4445 40.8862 37.1647V16.9314H4.11383V37.0807C4.11383 37.4165 4.21178 37.6824 4.40768 37.8783C4.60357 38.0742 4.84145 38.1721 5.1213 38.1721H39.8788ZM40.8862 10.215C40.8862 9.87921 40.7883 9.61335 40.5924 9.41745C40.3965 9.22156 40.1586 9.12361 39.8788 9.12361H5.1213C4.84145 9.12361 4.60357 9.22156 4.40768 9.41745C4.21178 9.61335 4.11383 9.87921 4.11383 10.215V14.8326H40.8862V10.215ZM7.68193 12.6917C7.68193 12.6917 7.63296 12.7407 7.53501 12.8386C7.43706 12.9366 7.24816 12.9855 6.96831 12.9855C6.68846 12.9855 6.45059 12.8876 6.25469 12.6917C6.0588 12.4958 5.96085 12.2579 5.96085 11.9781C5.96085 11.6982 6.0448 11.4464 6.21271 11.2225C6.71645 10.7747 7.22018 10.7747 7.72391 11.2225C7.89182 11.4464 7.97577 11.6982 7.97577 11.9781C7.97577 12.2579 7.87783 12.4958 7.68193 12.6917ZM11.5439 12.6917C11.5439 12.6917 11.4949 12.7407 11.3969 12.8386C11.299 12.9366 11.1101 12.9855 10.8303 12.9855C10.5504 12.9855 10.3125 12.8876 10.1166 12.6917C9.92074 12.4958 9.82279 12.2579 9.82279 11.9781C9.82279 11.6982 9.90674 11.4464 10.0747 11.2225C10.5784 10.7747 11.0821 10.7747 11.5858 11.2225C11.7538 11.4464 11.8377 11.6982 11.8377 11.9781C11.8377 12.2579 11.7398 12.4958 11.5439 12.6917ZM15.4478 12.6917C15.4478 12.6917 15.3918 12.7407 15.2799 12.8386C15.1679 12.9366 14.972 12.9855 14.6922 12.9855C14.4123 12.9855 14.1745 12.8876 13.9786 12.6917C13.7827 12.4958 13.6847 12.2579 13.6847 11.9781C13.6847 11.6982 13.7967 11.4464 14.0206 11.2225C14.4683 10.7747 14.9441 10.7747 15.4478 11.2225C15.6717 11.4464 15.7836 11.6982 15.7836 11.9781C15.7836 12.2579 15.6717 12.4958 15.4478 12.6917ZM29.3844 21.6329L35.4291 26.8382C35.709 27.062 35.8489 27.3279 35.8489 27.6357C35.8489 27.9436 35.709 28.2094 35.4291 28.4333L29.3844 33.5546C29.1605 33.7225 28.9366 33.8064 28.7127 33.8064C28.3769 33.8064 28.097 33.6945 27.8732 33.4706C27.4254 32.9669 27.4814 32.4911 28.0411 32.0434L33.2463 27.5938L28.0411 23.2281C27.4814 22.7803 27.4254 22.2906 27.8732 21.7589C28.3209 21.2272 28.8247 21.1852 29.3844 21.6329ZM11.7538 27.5938L16.959 32.0434C17.4627 32.4911 17.4907 32.9669 17.0429 33.4706C16.875 33.6945 16.6232 33.8064 16.2873 33.8064C16.0635 33.8064 15.8396 33.7225 15.6157 33.5546L9.48697 28.3494C9.26309 28.1814 9.15115 27.9436 9.15115 27.6357C9.15115 27.3279 9.26309 27.062 9.48697 26.8382L15.6157 21.6329C16.1754 21.1852 16.6651 21.2272 17.0849 21.7589C17.5047 22.2906 17.4627 22.7803 16.959 23.2281L11.7538 27.5938ZM24.0952 20.7934C24.375 20.1217 24.8368 19.9119 25.4804 20.1637C26.1241 20.4156 26.306 20.8773 26.0261 21.549L20.8209 34.4781C20.653 34.9258 20.3452 35.1497 19.8974 35.1497C19.7855 35.1497 19.6455 35.1217 19.4776 35.0658C18.862 34.7859 18.6941 34.3382 18.9739 33.7225L24.0952 20.7934Z" fill="#C72127"/>
</svg>
