<svg width="46" height="47" viewBox="0 0 46 47" fill="none" xmlns="http://www.w3.org/2000/svg">
<path d="M22.6567 11.2817C22.6567 11.2817 22.6567 11.1387 22.6567 10.8526C22.6567 10.5666 22.9427 10.4235 23.5149 10.4235C24.087 10.4235 24.3731 10.7096 24.3731 11.2817C24.3731 11.8539 24.087 12.1399 23.5149 12.1399C22.9427 12.1399 22.6567 11.8539 22.6567 11.2817ZM44.2835 19.8638C44.7412 19.9783 44.9701 20.2643 44.9701 20.722V25.8713C44.9701 26.329 44.7412 26.6151 44.2835 26.7295L41.1081 27.5019C40.6504 29.3899 39.9067 31.135 38.8768 32.737L40.5932 35.5691C40.8793 35.9695 40.8507 36.3414 40.5074 36.6847L36.9029 40.2892C36.5596 40.6325 36.1877 40.6611 35.7873 40.375L32.8693 38.6586C31.2673 39.6312 29.5509 40.3464 27.7201 40.8041L26.9477 44.0653C26.8333 44.523 26.5472 44.7519 26.0895 44.7519H20.9402C20.4825 44.7519 20.1965 44.523 20.082 44.0653L19.2238 40.7183C17.4502 40.3178 15.791 39.6312 14.2462 38.6586L9.61187 43.2929H9.52605L8.32456 44.4944C7.52357 45.3526 6.52232 45.7817 5.32083 45.7817C4.11934 45.7817 3.10379 45.3669 2.27419 44.5373C1.44459 43.7077 1.02979 42.6922 1.02979 41.4907C1.02979 40.2892 1.45889 39.288 2.3171 38.487L3.51859 37.2855V37.1996L8.15292 32.5653C7.18028 31.0205 6.49372 29.3613 6.09322 27.5877L2.7462 26.7295C2.28849 26.6151 2.05964 26.329 2.05964 25.8713V20.722C2.05964 20.2643 2.28849 19.9783 2.7462 19.8638L6.0074 19.0914C6.46511 17.2606 7.18028 15.5442 8.15292 13.9422L6.4365 11.0243C6.15043 10.6238 6.17904 10.2519 6.52232 9.9086L10.1268 6.30413C10.4701 5.96084 10.842 5.93224 11.2425 6.2183L14.0746 7.93472C15.6766 6.90487 17.4216 6.16109 19.3096 5.70338L20.082 2.528C20.1965 2.07029 20.4825 1.84144 20.9402 1.84144H26.0895C26.5472 1.84144 26.8333 2.07029 26.9477 2.528L27.7201 5.70338C29.6081 6.16109 31.3532 6.87626 32.9552 7.8489L35.7873 6.2183C36.1877 5.93224 36.5596 5.96084 36.9029 6.30413L40.5074 9.9086C40.8507 10.2519 40.8793 10.6238 40.5932 11.0243L38.9626 13.8564C39.9353 15.4584 40.6504 17.2034 41.1081 19.0914L44.2835 19.8638ZM7.12307 43.2929L7.72382 42.6922L4.11934 39.0877L3.51859 39.6885C3.00367 40.2034 2.7462 40.8041 2.7462 41.4907C2.7462 42.1773 3.00367 42.778 3.51859 43.2929C4.03352 43.8079 4.63426 44.0653 5.32083 44.0653C6.0074 44.0653 6.60814 43.8079 7.12307 43.2929ZM13.4738 36.9422L17.1641 33.2519L20.1678 30.2482C18.5659 29.4472 17.3644 28.2457 16.5634 26.6437L13.5596 29.6474L9.86934 33.3377L5.32083 37.8862L8.92531 41.4907L13.4738 36.9422ZM25.5746 22.2668L23.2574 29.3041C23.3718 29.3041 23.4576 29.3041 23.5149 29.3041C25.1741 29.3041 26.5901 28.7177 27.763 27.5448C28.9359 26.3719 29.5223 24.9559 29.5223 23.2967C29.5223 21.6375 28.9359 20.2214 27.763 19.0485C26.5901 17.8756 25.1741 17.2892 23.5149 17.2892C21.8557 17.2892 20.4396 17.8756 19.2667 19.0485C18.0938 20.2214 17.5074 21.6375 17.5074 23.2967C17.5074 23.3539 17.5074 23.4397 17.5074 23.5541L24.5447 21.237C24.888 21.1225 25.1741 21.1797 25.4029 21.4086C25.6318 21.6375 25.689 21.9235 25.5746 22.2668ZM21.6268 28.7892L23.429 23.3825L18.0223 25.1847L17.8507 25.3564C18.48 27.13 19.6815 28.3315 21.4552 28.9608L21.6268 28.7892ZM43.2537 25.1847V21.4086L40.1641 20.6362C39.8208 20.5218 39.6206 20.2929 39.5634 19.9496C39.1629 17.9472 38.3905 16.0591 37.2462 14.2855C37.0173 13.9994 36.9887 13.7133 37.1604 13.4273L38.791 10.681L36.1305 8.02054L33.3843 9.65114C33.0982 9.82278 32.8121 9.79417 32.5261 9.56532C30.7524 8.42104 28.8644 7.64865 26.8619 7.24815C26.5186 7.19094 26.2897 6.99069 26.1753 6.64741L25.4029 3.55786H21.6268L20.8544 6.64741C20.74 6.99069 20.5111 7.19094 20.1678 7.24815C18.1654 7.70587 16.3059 8.50686 14.5895 9.65114C14.3034 9.82278 13.9887 9.82278 13.6455 9.65114L10.8992 8.02054L8.23874 10.681L9.86934 13.5131C10.041 13.7992 10.041 14.0852 9.86934 14.3713C8.78227 16.0877 8.03849 17.9472 7.63799 19.9496C7.52357 20.2929 7.29471 20.4932 6.95143 20.5504L3.77605 21.4086V25.1847L7.03725 26.0429C7.38053 26.1001 7.58078 26.3004 7.63799 26.6437C7.98128 28.3029 8.58202 29.8763 9.44023 31.3638L11.929 28.875C11.0708 27.1014 10.6417 25.2419 10.6417 23.2967C10.6417 20.5504 11.4141 18.0902 12.9589 15.9161C14.5037 13.7419 16.5062 12.1972 18.9664 11.2817C19.5385 11.0529 19.9247 11.2102 20.1249 11.7538C20.3252 12.2973 20.1392 12.6549 19.5671 12.8265C17.393 13.6847 15.6479 15.0722 14.332 16.9888C13.0161 18.9055 12.3581 21.0081 12.3581 23.2967C12.3581 24.7842 12.6442 26.186 13.2164 27.5019L15.9626 24.8414C15.8482 24.3265 15.791 23.8116 15.791 23.2967C15.791 21.1797 16.5491 19.3632 18.0652 17.847C19.5814 16.3309 21.3979 15.5728 23.5149 15.5728C25.6318 15.5728 27.4483 16.3309 28.9645 17.847C30.4807 19.3632 31.2387 21.1797 31.2387 23.2967C31.2387 24.6698 30.8955 25.9571 30.2089 27.1586C29.5223 28.3601 28.5783 29.3041 27.3768 29.9907C26.1753 30.6773 24.888 31.0205 23.5149 31.0205C22.9999 31.0205 22.485 30.9633 21.9701 30.8489L19.3096 33.5952C20.6256 34.1673 22.0273 34.4534 23.5149 34.4534C26.6044 34.4534 29.2363 33.3663 31.4104 31.1922C33.5845 29.0181 34.6716 26.3862 34.6716 23.2967C34.6716 21.0081 33.9993 18.9055 32.6548 16.9888C31.3103 15.0722 29.5795 13.6847 27.4626 12.8265C26.8905 12.6549 26.7045 12.2973 26.9048 11.7538C27.105 11.2102 27.4912 11.0529 28.0634 11.2817C30.5236 12.1972 32.5261 13.7419 34.0708 15.9161C35.6156 18.0902 36.388 20.5504 36.388 23.2967C36.388 26.8439 35.1293 29.8763 32.6119 32.3937C30.0945 34.9111 27.0621 36.1698 23.5149 36.1698C21.5696 36.1698 19.7101 35.7407 17.9365 34.8825L15.4477 37.3713C16.9353 38.2295 18.5086 38.8302 20.1678 39.1735C20.5111 39.2307 20.7114 39.431 20.7686 39.7743L21.6268 43.0355H25.4029L26.2611 39.8601C26.3183 39.5168 26.5186 39.288 26.8619 39.1735C28.8644 38.773 30.7238 38.0293 32.4402 36.9422C32.7263 36.7705 33.0124 36.7705 33.2984 36.9422L36.1305 38.5728L38.791 35.9123L37.1604 33.1661C36.9887 32.8228 36.9887 32.5081 37.1604 32.222C38.3047 30.5056 39.1057 28.6462 39.5634 26.6437C39.6206 26.3004 39.8208 26.0715 40.1641 25.9571L43.2537 25.1847Z" fill="#C72127"/>
</svg>
