<svg width="53" height="54" viewBox="0 0 53 54" fill="none" xmlns="http://www.w3.org/2000/svg">
<path d="M45.4282 32.0102C44.9008 32.0102 44.6372 31.7466 44.6372 31.2192C44.6372 30.6918 44.9008 30.4281 45.4282 30.4281H48.889C49.2846 30.4281 49.5977 30.3128 49.8284 30.0821C50.0591 29.8513 50.1745 29.5712 50.1745 29.2416V25.0886C50.1745 24.759 50.0426 24.4623 49.779 24.1987C49.5812 24.0009 49.2846 23.902 48.889 23.902H45.4282C44.9668 23.902 44.7031 23.6713 44.6372 23.2099C44.3735 22.0892 44.0439 21.0345 43.6484 20.0457C43.1869 18.991 42.6596 18.0021 42.0663 17.0793C41.8685 16.6837 41.9015 16.3541 42.1651 16.0905L44.6372 13.6184C44.9008 13.3548 45.0327 13.0581 45.0327 12.7285C45.0327 12.3989 44.9008 12.1023 44.6372 11.8386L41.7696 8.97105C41.5059 8.70737 41.2093 8.57553 40.8797 8.57553C40.5501 8.57553 40.2535 8.70737 39.9898 8.97105L37.5178 11.4431C37.1882 11.7727 36.8586 11.7727 36.529 11.4431C35.6061 10.8498 34.6173 10.3554 33.5625 9.95986C32.5078 9.49842 31.4531 9.16881 30.3984 8.97105C29.9369 8.90513 29.7062 8.64145 29.7062 8.18001V4.71919C29.7062 4.32367 29.5908 4.01054 29.3601 3.77982C29.1294 3.5491 28.8492 3.43374 28.5196 3.43374H24.3666C24.037 3.43374 23.7569 3.5491 23.5262 3.77982C23.2954 4.01054 23.1801 4.32367 23.1801 4.71919V8.18001C23.1801 8.64145 22.9494 8.90513 22.4879 8.97105C21.3673 9.23473 20.3125 9.56434 19.3237 9.95986C18.269 10.3554 17.2802 10.8827 16.3573 11.5419C15.9618 11.7397 15.6322 11.7067 15.3685 11.4431L12.8965 8.97105C12.6328 8.70737 12.3362 8.57553 12.0066 8.57553C11.677 8.57553 11.3803 8.70737 11.1166 8.97105L8.2491 11.8386C7.98542 12.1023 7.85358 12.3989 7.85358 12.7285C7.85358 13.0581 7.98542 13.3548 8.2491 13.6184L10.7211 16.0905C10.9848 16.3541 11.0178 16.6837 10.82 17.0793C10.1608 18.0021 9.61695 18.991 9.18847 20.0457C8.75999 21.1004 8.44686 22.1551 8.2491 23.2099C8.11726 23.6713 7.85358 23.902 7.45806 23.902H3.99724C3.60171 23.902 3.28859 24.0174 3.05787 24.2481C2.82715 24.4788 2.71179 24.759 2.71179 25.0886V29.2416C2.71179 29.5712 2.84363 29.8678 3.10731 30.1315C3.37099 30.3293 3.66764 30.4281 3.99724 30.4281H7.45806C7.9195 30.4281 8.18318 30.6589 8.2491 31.1203C8.44686 32.241 8.77647 33.2957 9.23791 34.2845C9.63343 35.3392 10.1608 36.328 10.82 37.2509C11.0178 37.6464 10.9848 37.976 10.7211 38.2397L8.2491 40.7117C7.98542 40.9754 7.85358 41.272 7.85358 41.6017C7.85358 41.9313 7.98542 42.2279 8.2491 42.4916L11.1166 45.3591C11.3803 45.6228 11.677 45.7546 12.0066 45.7546C12.3362 45.7546 12.6328 45.6228 12.8965 45.3591L15.3685 42.8871C15.6322 42.6234 15.9618 42.5905 16.3573 42.7882C17.2802 43.4474 18.269 43.9748 19.3237 44.3703C20.3785 44.8317 21.4332 45.1614 22.4879 45.3591C22.9494 45.425 23.1801 45.6887 23.1801 46.1502V49.611C23.1801 50.0065 23.2954 50.3196 23.5262 50.5503C23.7569 50.7811 24.037 50.8964 24.3666 50.8964H28.5196C28.8492 50.8964 29.1459 50.7646 29.4096 50.5009C29.6073 50.2372 29.7062 49.9406 29.7062 49.611V46.1502C29.7062 45.6887 29.9369 45.425 30.3984 45.3591C31.519 45.0954 32.5737 44.7658 33.5625 44.3703C34.6173 43.9089 35.6061 43.3815 36.529 42.7882C36.9245 42.5905 37.2541 42.6234 37.5178 42.8871L39.9898 45.3591C40.2535 45.6228 40.5501 45.7546 40.8797 45.7546C41.2093 45.7546 41.5059 45.6228 41.7696 45.3591L44.6372 42.4916H44.736C44.9338 42.2279 45.0327 41.9313 45.0327 41.6017C45.0327 41.272 44.9008 40.9754 44.6372 40.7117L44.0439 40.1184L43.4506 39.5252L42.7584 38.833L42.1651 38.2397C41.9015 37.9101 41.8685 37.5805 42.0663 37.2509L42.264 36.9543L42.5607 36.5587L42.7584 36.1632L42.9562 35.8666V35.7677L43.154 35.4711L43.2528 35.0755C43.5165 34.6141 43.8791 34.4987 44.3405 34.7294C44.802 34.9602 44.9338 35.3063 44.736 35.7677L44.5383 36.1632L44.3405 36.5587L44.1428 36.9543L43.945 37.3498H43.8461L43.7472 37.5475L43.8461 37.7453H43.945L44.5383 38.3386L45.1316 39.0308L45.8237 39.624C46.3511 40.1514 46.6148 40.8106 46.6148 41.6017C46.6148 42.3927 46.3511 43.0519 45.8237 43.5793L42.8573 46.5457C42.3299 47.073 41.6707 47.3367 40.8797 47.3367C40.0887 47.3367 39.4295 47.073 38.9021 46.5457L36.8256 44.4692C35.9686 44.9966 35.0787 45.458 34.1558 45.8535C33.2329 46.249 32.2771 46.5457 31.2883 46.7434V49.611C31.2883 50.402 31.0246 51.0612 30.4972 51.5886V51.6875C29.9699 52.2148 29.3107 52.4785 28.5196 52.4785H24.3666C23.6415 52.4785 22.9988 52.1984 22.4385 51.638C21.8781 51.0777 21.598 50.402 21.598 49.611V46.7434C20.6092 46.5457 19.6533 46.249 18.7304 45.8535C17.8076 45.458 16.9176 44.9966 16.0607 44.4692L13.9842 46.5457C13.4568 47.073 12.7976 47.3367 12.0066 47.3367C11.2155 47.3367 10.5563 47.073 10.029 46.5457L7.06254 43.5793C6.53517 43.0519 6.27149 42.3927 6.27149 41.6017C6.27149 40.8106 6.53517 40.1514 7.06254 39.624L9.13903 37.5475C8.61166 36.6906 8.15022 35.8336 7.7547 34.9767V34.8778C7.35918 33.9549 7.06254 32.999 6.86477 32.0102H3.99724C3.20619 32.0102 2.54699 31.7466 2.01963 31.2192H1.92074C1.39338 30.6259 1.1297 29.9667 1.1297 29.2416V25.0886C1.1297 24.3635 1.40986 23.7207 1.97018 23.1604C2.53051 22.6001 3.20619 22.3199 3.99724 22.3199H6.86477C7.06254 21.3311 7.35918 20.3753 7.7547 19.4524C8.15022 18.5295 8.61166 17.6396 9.13903 16.7826L7.16142 14.805L7.06254 14.7061C6.53517 14.1788 6.27149 13.5196 6.27149 12.7285C6.27149 11.9375 6.53517 11.2783 7.06254 10.7509L10.029 7.78449C10.5563 7.25712 11.2155 6.99344 12.0066 6.99344C12.7976 6.99344 13.4568 7.25712 13.9842 7.78449L16.0607 9.86098C16.9176 9.33362 17.8076 8.87217 18.7304 8.47665C19.6533 8.08113 20.6092 7.78449 21.598 7.58672V4.71919C21.598 3.92814 21.8781 3.25246 22.4385 2.69214C22.9988 2.13181 23.6415 1.85165 24.3666 1.85165H28.5196C29.2447 1.85165 29.8875 2.13181 30.4478 2.69214C31.0081 3.25246 31.2883 3.92814 31.2883 4.71919V7.58672C32.2771 7.78449 33.2329 8.08113 34.1558 8.47665C35.0787 8.87217 35.9686 9.33362 36.8256 9.86098L38.9021 7.78449C39.4295 7.25712 40.0887 6.99344 40.8797 6.99344C41.6707 6.99344 42.3299 7.25712 42.8573 7.78449L45.8237 10.7509C46.3511 11.2783 46.6148 11.9375 46.6148 12.7285C46.6148 13.5196 46.3511 14.1788 45.8237 14.7061L43.7472 16.7826C44.2746 17.6396 44.736 18.4966 45.1316 19.3535V19.4524C45.5271 20.3753 45.8237 21.3311 46.0215 22.3199H48.889C49.6801 22.3199 50.3558 22.6001 50.9161 23.1604C51.4764 23.7207 51.7566 24.3635 51.7566 25.0886V29.2416C51.7566 30.0326 51.4764 30.6918 50.9161 31.2192C50.3558 31.7466 49.6801 32.0102 48.889 32.0102H45.4282ZM19.3237 44.3703L19.7193 45.458C19.917 44.9306 19.7852 44.5681 19.3237 44.3703ZM42.0663 37.2509L42.1651 37.152C42.1651 37.152 42.1322 37.185 42.0663 37.2509ZM42.9562 35.7677C43.0221 35.7018 43.121 35.6359 43.2528 35.5699L42.9562 35.7677ZM19.3732 20.0951C19.3732 20.0951 19.8593 19.609 20.8317 18.6366C21.804 17.6643 23.6745 17.1781 26.4431 17.1781C29.2118 17.1781 31.5684 18.1505 33.5131 20.0951C35.4577 22.0398 36.4301 24.3964 36.4301 27.1651C36.4301 29.9337 35.4577 32.2904 33.5131 34.235C31.5684 36.1797 29.2118 37.152 26.4431 37.152C23.6745 37.152 21.3178 36.1797 19.3732 34.235C17.4285 32.2904 16.4562 29.9337 16.4562 27.1651C16.4562 24.3964 17.4285 22.0398 19.3732 20.0951ZM34.848 27.1651C34.848 27.1651 34.848 26.5883 34.848 25.4347C34.848 24.2811 34.024 22.8803 32.376 21.2322C30.728 19.5842 28.7503 18.7602 26.4431 18.7602C24.1359 18.7602 22.1583 19.5842 20.5103 21.2322C18.8623 22.8803 18.0383 24.8579 18.0383 27.1651C18.0383 29.4723 18.8623 31.4499 20.5103 33.0979C22.1583 34.7459 24.1359 35.5699 26.4431 35.5699C28.7503 35.5699 30.728 34.7459 32.376 33.0979C34.024 31.4499 34.848 29.4723 34.848 27.1651ZM22.2407 22.9627C22.2407 22.9627 22.5291 22.6743 23.1059 22.0975C23.6827 21.5206 24.7951 21.2322 26.4431 21.2322C28.0911 21.2322 29.492 21.8091 30.6456 22.9627C31.7992 24.1163 32.376 25.5171 32.376 27.1651C32.376 28.8131 31.7827 30.1974 30.5961 31.3181C29.4755 32.5046 28.0911 33.0979 26.4431 33.0979C24.7951 33.0979 23.3943 32.5211 22.2407 31.3675C21.0871 30.2139 20.5103 28.8131 20.5103 27.1651C20.5103 25.5171 21.0871 24.1163 22.2407 22.9627ZM30.7939 27.1651C30.7939 27.1651 30.7939 26.8684 30.7939 26.2752C30.7939 25.6819 30.3654 24.9567 29.5084 24.0998C28.6515 23.2428 27.6297 22.8143 26.4431 22.8143C25.2566 22.8143 24.2348 23.2428 23.3778 24.0998C22.5209 24.9567 22.0924 25.9785 22.0924 27.1651C22.0924 28.3517 22.5209 29.3734 23.3778 30.2304C24.2348 31.0873 25.2566 31.5158 26.4431 31.5158C27.6297 31.5158 28.6515 31.0873 29.5084 30.2304C30.3654 29.3734 30.7939 28.3517 30.7939 27.1651Z" fill="#C72127"/>
</svg>
