<svg width="50" height="50" viewBox="0 0 50 50" fill="none" xmlns="http://www.w3.org/2000/svg">
<path d="M19.9629 31.9962C19.7763 31.9962 19.6209 31.934 19.4965 31.8096L14.3659 27.4253C14.1793 27.2388 14.086 27.0366 14.086 26.819C14.086 26.6013 14.1793 26.3992 14.3659 26.2126L19.4965 21.9216C19.8696 21.5485 20.2272 21.564 20.5693 21.9682C20.9113 22.3725 20.8647 22.73 20.4293 23.041L16.045 26.8656L20.4293 30.597C20.8647 30.9079 20.8957 31.281 20.5226 31.7164C20.3982 31.9029 20.2117 31.9962 19.9629 31.9962ZM30.0375 31.9962C29.7888 31.9962 29.6022 31.9029 29.4778 31.7164C29.1047 31.281 29.1358 30.9079 29.5711 30.597L33.9554 26.8656L29.5711 23.041C29.1358 22.73 29.0892 22.3725 29.4312 21.9682C29.7732 21.564 30.1308 21.5485 30.504 21.9216L35.6346 26.2126C35.8211 26.3992 35.9144 26.6013 35.9144 26.819C35.9144 27.0366 35.8211 27.2388 35.6346 27.4253L30.504 31.8096C30.3796 31.934 30.2241 31.9962 30.0375 31.9962ZM23.2278 35.2611C23.1656 35.2611 23.1035 35.23 23.0413 35.1679C22.5438 35.1057 22.3261 34.7947 22.3883 34.235L25.5599 19.1231C25.6843 18.6256 26.0108 18.439 26.5394 18.5634C27.068 18.6878 27.2701 18.9987 27.1457 19.4962L23.9741 34.6082C23.8497 35.0435 23.601 35.2611 23.2278 35.2611ZM43.5637 43.4701H6.43679C4.94426 43.4701 3.68493 42.9415 2.65881 41.8843C1.63269 40.8271 1.11963 39.5833 1.11963 38.1529V6.62308C1.11963 5.13054 1.63269 3.87121 2.65881 2.84509C3.68493 1.81897 4.94426 1.30592 6.43679 1.30592H43.5637C45.0562 1.30592 46.3155 1.81897 47.3416 2.84509C48.3678 3.87121 48.8808 5.13054 48.8808 6.62308V38.1529C48.8808 39.0858 48.6476 39.972 48.1812 40.8115C47.7148 41.6511 47.0773 42.304 46.2689 42.7705C45.4604 43.2369 44.5587 43.4701 43.5637 43.4701ZM6.43679 2.89174C5.37958 2.89174 4.49339 3.24932 3.77821 3.9645C3.06304 4.67967 2.70545 5.56586 2.70545 6.62308V38.1529C2.70545 39.148 3.06304 40.0186 3.77821 40.7649C4.49339 41.5111 5.37958 41.8843 6.43679 41.8843H43.5637C44.6209 41.8843 45.5071 41.5111 46.2222 40.7649C46.9374 40.0186 47.295 39.148 47.295 38.1529V6.62308C47.295 5.56586 46.9374 4.67967 46.2222 3.9645C45.5071 3.24932 44.6209 2.89174 43.5637 2.89174H6.43679ZM48.1346 13.8992H1.8659C1.36839 13.8992 1.11963 13.6349 1.11963 13.1063C1.11963 12.5777 1.36839 12.3134 1.8659 12.3134H48.1346C48.6321 12.3134 48.8808 12.5777 48.8808 13.1063C48.8808 13.6349 48.6321 13.8992 48.1346 13.8992ZM14.5525 10.1679C14.1171 10.1679 13.7129 10.059 13.3398 9.84136C12.9666 9.6237 12.6712 9.31276 12.4536 8.90853C12.2359 8.5043 12.1271 8.08452 12.1271 7.6492C12.1271 6.96512 12.3603 6.37432 12.8267 5.87681C13.2931 5.3793 13.8684 5.13054 14.5525 5.13054C15.2365 5.13054 15.8273 5.3793 16.3249 5.87681C16.8224 6.37432 17.0711 6.96512 17.0711 7.6492C17.0711 8.33328 16.8224 8.92407 16.3249 9.42159C15.8273 9.9191 15.2365 10.1679 14.5525 10.1679ZM15.4853 7.6492C15.4853 7.6492 15.4853 7.49372 15.4853 7.18278C15.4853 6.87183 15.1899 6.71636 14.5991 6.71636C14.0083 6.71636 13.7129 7.02731 13.7129 7.6492C13.7129 8.27109 14.0083 8.58204 14.5991 8.58204C15.1899 8.58204 15.4853 8.27109 15.4853 7.6492ZM8.6756 9.42159C8.6756 9.42159 8.55122 9.54596 8.30246 9.79472C8.05371 10.0435 7.58729 10.1679 6.90321 10.1679C6.21913 10.1679 5.62833 9.9191 5.13082 9.42159C4.63331 8.92407 4.38455 8.33328 4.38455 7.6492C4.38455 6.96512 4.63331 6.37432 5.13082 5.87681C5.62833 5.3793 6.21913 5.13054 6.90321 5.13054C7.58729 5.13054 8.17809 5.3793 8.6756 5.87681C9.17311 6.37432 9.42187 6.96512 9.42187 7.6492C9.42187 8.33328 9.17311 8.92407 8.6756 9.42159ZM7.83605 7.6492C7.83605 7.6492 7.83605 7.49372 7.83605 7.18278C7.83605 6.87183 7.5251 6.71636 6.90321 6.71636C6.28132 6.71636 5.97038 7.02731 5.97038 7.6492C5.97038 8.27109 6.28132 8.58204 6.90321 8.58204C7.5251 8.58204 7.83605 8.27109 7.83605 7.6492ZM24.0207 9.42159C24.0207 9.42159 23.9041 9.54596 23.6709 9.79472C23.4377 10.0435 22.9791 10.1679 22.295 10.1679C21.6109 10.1679 21.0201 9.9191 20.5226 9.42159C20.0251 8.92407 19.7763 8.33328 19.7763 7.6492C19.7763 6.96512 20.0251 6.38987 20.5226 5.92345C21.0201 5.45704 21.6109 5.22383 22.295 5.22383C22.9791 5.22383 23.5543 5.45704 24.0207 5.92345C24.4872 6.38987 24.7204 6.96512 24.7204 7.6492C24.7204 8.33328 24.4872 8.92407 24.0207 9.42159ZM23.1346 7.69584C23.1346 7.69584 23.1346 7.54814 23.1346 7.25274C23.1346 6.95734 22.8392 6.80965 22.2484 6.80965C21.6576 6.80965 21.3622 7.10505 21.3622 7.69584C21.3622 8.28664 21.6576 8.58204 22.2484 8.58204C22.8392 8.58204 23.1346 8.28664 23.1346 7.69584Z" fill="#C72127"/>
</svg>
