<svg width="50" height="50" viewBox="0 0 50 50" fill="none" xmlns="http://www.w3.org/2000/svg">
<path d="M42.9107 29.7574C42.4132 29.7574 42.1644 29.5087 42.1644 29.0112C42.1644 28.5137 42.4132 28.2649 42.9107 28.2649H46.1756C46.5487 28.2649 46.8441 28.1561 47.0618 27.9384C47.2795 27.7207 47.3883 27.4564 47.3883 27.1455V23.2276C47.3883 22.9166 47.2639 22.6368 47.0151 22.388C46.8286 22.2015 46.5487 22.1082 46.1756 22.1082H42.9107C42.4753 22.1082 42.2266 21.8905 42.1644 21.4552C41.9156 20.398 41.6047 19.403 41.2316 18.4701C40.7962 17.4751 40.2987 16.5423 39.739 15.6716C39.5525 15.2985 39.5836 14.9875 39.8323 14.7388L42.1644 12.4067C42.4132 12.1579 42.5375 11.8781 42.5375 11.5671C42.5375 11.2562 42.4132 10.9763 42.1644 10.7276L39.4592 8.02237C39.2104 7.77361 38.9306 7.64923 38.6196 7.64923C38.3087 7.64923 38.0288 7.77361 37.7801 8.02237L35.448 10.3545C35.137 10.6654 34.8261 10.6654 34.5152 10.3545C33.6445 9.79475 32.7117 9.32833 31.7166 8.9552C30.7216 8.51987 29.7266 8.20893 28.7316 8.02237C28.2962 7.96017 28.0786 7.71142 28.0786 7.2761V4.01117C28.0786 3.63803 27.9698 3.34264 27.7521 3.12498C27.5344 2.90731 27.2701 2.79848 26.9592 2.79848H23.0413C22.7303 2.79848 22.466 2.90731 22.2484 3.12498C22.0307 3.34264 21.9219 3.63803 21.9219 4.01117V7.2761C21.9219 7.71142 21.7042 7.96017 21.2689 8.02237C20.2117 8.27112 19.2166 8.58207 18.2838 8.9552C17.2888 9.32833 16.3559 9.82585 15.4853 10.4477C15.1122 10.6343 14.8012 10.6032 14.5525 10.3545L12.2204 8.02237C11.9716 7.77361 11.6918 7.64923 11.3808 7.64923C11.0699 7.64923 10.79 7.77361 10.5413 8.02237L7.83605 10.7276C7.58729 10.9763 7.46291 11.2562 7.46291 11.5671C7.46291 11.8781 7.58729 12.1579 7.83605 12.4067L10.1681 14.7388C10.4169 14.9875 10.448 15.2985 10.2614 15.6716C9.63953 16.5423 9.12647 17.4751 8.72224 18.4701C8.31801 19.4651 8.02261 20.4602 7.83605 21.4552C7.71167 21.8905 7.46291 22.1082 7.08978 22.1082H3.82485C3.45172 22.1082 3.15632 22.217 2.93866 22.4347C2.721 22.6523 2.61217 22.9166 2.61217 23.2276V27.1455C2.61217 27.4564 2.73654 27.7363 2.9853 27.9851C3.23406 28.1716 3.51391 28.2649 3.82485 28.2649H7.08978C7.5251 28.2649 7.77386 28.4826 7.83605 28.9179C8.02261 29.9751 8.33356 30.9701 8.76888 31.903C9.14202 32.898 9.63953 33.8308 10.2614 34.7015C10.448 35.0746 10.4169 35.3855 10.1681 35.6343L7.83605 37.9664C7.58729 38.2151 7.46291 38.495 7.46291 38.8059C7.46291 39.1169 7.58729 39.3967 7.83605 39.6455L10.5413 42.3507C10.79 42.5995 11.0699 42.7239 11.3808 42.7239C11.6918 42.7239 11.9716 42.5995 12.2204 42.3507L14.5525 40.0186C14.8012 39.7699 15.1122 39.7388 15.4853 39.9253C16.3559 40.5472 17.2888 41.0448 18.2838 41.4179C19.2788 41.8532 20.2739 42.1642 21.2689 42.3507C21.7042 42.4129 21.9219 42.6617 21.9219 43.097V46.3619C21.9219 46.735 22.0307 47.0304 22.2484 47.2481C22.466 47.4658 22.7303 47.5746 23.0413 47.5746H26.9592C27.2701 47.5746 27.55 47.4502 27.7987 47.2015C27.9853 46.9527 28.0786 46.6729 28.0786 46.3619V43.097C28.0786 42.6617 28.2962 42.4129 28.7316 42.3507C29.7888 42.102 30.7838 41.791 31.7166 41.4179C32.7117 40.9826 33.6445 40.485 34.5152 39.9253C34.8883 39.7388 35.1992 39.7699 35.448 40.0186L37.7801 42.3507C38.0288 42.5995 38.3087 42.7239 38.6196 42.7239C38.9306 42.7239 39.2104 42.5995 39.4592 42.3507L42.1644 39.6455H42.2577C42.4443 39.3967 42.5375 39.1169 42.5375 38.8059C42.5375 38.495 42.4132 38.2151 42.1644 37.9664L41.6047 37.4067L41.045 36.847L40.392 36.194L39.8323 35.6343C39.5836 35.3234 39.5525 35.0124 39.739 34.7015L39.9256 34.4216L40.2054 34.0485L40.392 33.6753L40.5786 33.3955V33.3022L40.7651 33.0224L40.8584 32.6492C41.1072 32.2139 41.4492 32.1051 41.8846 32.3227C42.3199 32.5404 42.4443 32.8669 42.2577 33.3022L42.0711 33.6753L41.8846 34.0485L41.698 34.4216L41.5114 34.7948H41.4181L41.3249 34.9813L41.4181 35.1679H41.5114L42.0711 35.7276L42.6308 36.3806L43.2838 36.9403C43.7813 37.4378 44.0301 38.0597 44.0301 38.8059C44.0301 39.5522 43.7813 40.1741 43.2838 40.6716L40.4853 43.4701C39.9878 43.9676 39.3659 44.2164 38.6196 44.2164C37.8734 44.2164 37.2515 43.9676 36.754 43.4701L34.795 41.5112C33.9865 42.0087 33.147 42.444 32.2763 42.8171C31.4057 43.1903 30.504 43.4701 29.5711 43.6567V46.3619C29.5711 47.1082 29.3224 47.7301 28.8249 48.2276V48.3209C28.3273 48.8184 27.7054 49.0671 26.9592 49.0671H23.0413C22.3572 49.0671 21.7508 48.8028 21.2222 48.2742C20.6936 47.7456 20.4293 47.1082 20.4293 46.3619V43.6567C19.4965 43.4701 18.5948 43.1903 17.7241 42.8171C16.8535 42.444 16.0139 42.0087 15.2054 41.5112L13.2465 43.4701C12.749 43.9676 12.1271 44.2164 11.3808 44.2164C10.6346 44.2164 10.0127 43.9676 9.51515 43.4701L6.71664 40.6716C6.21913 40.1741 5.97038 39.5522 5.97038 38.8059C5.97038 38.0597 6.21913 37.4378 6.71664 36.9403L8.6756 34.9813C8.17809 34.1729 7.74276 33.3644 7.36963 32.5559V32.4627C6.99649 31.592 6.71664 30.6903 6.53008 29.7574H3.82485C3.07858 29.7574 2.45669 29.5087 1.95918 29.0112H1.8659C1.36839 28.4515 1.11963 27.8296 1.11963 27.1455V23.2276C1.11963 22.5435 1.38393 21.9372 1.91254 21.4086C2.44115 20.88 3.07858 20.6156 3.82485 20.6156H6.53008C6.71664 19.6828 6.99649 18.7811 7.36963 17.9104C7.74276 17.0398 8.17809 16.2002 8.6756 15.3918L6.80993 13.5261L6.71664 13.4328C6.21913 12.9353 5.97038 12.3134 5.97038 11.5671C5.97038 10.8209 6.21913 10.199 6.71664 9.70147L9.51515 6.90296C10.0127 6.40545 10.6346 6.15669 11.3808 6.15669C12.1271 6.15669 12.749 6.40545 13.2465 6.90296L15.2054 8.86192C16.0139 8.3644 16.8535 7.92908 17.7241 7.55595C18.5948 7.18281 19.4965 6.90296 20.4293 6.71639V4.01117C20.4293 3.2649 20.6936 2.62746 21.2222 2.09886C21.7508 1.57025 22.3572 1.30595 23.0413 1.30595H26.9592C27.6433 1.30595 28.2496 1.57025 28.7782 2.09886C29.3068 2.62746 29.5711 3.2649 29.5711 4.01117V6.71639C30.504 6.90296 31.4057 7.18281 32.2763 7.55595C33.147 7.92908 33.9865 8.3644 34.795 8.86192L36.754 6.90296C37.2515 6.40545 37.8734 6.15669 38.6196 6.15669C39.3659 6.15669 39.9878 6.40545 40.4853 6.90296L43.2838 9.70147C43.7813 10.199 44.0301 10.8209 44.0301 11.5671C44.0301 12.3134 43.7813 12.9353 43.2838 13.4328L41.3249 15.3918C41.8224 16.2002 42.2577 17.0087 42.6308 17.8171V17.9104C43.004 18.7811 43.2838 19.6828 43.4704 20.6156H46.1756C46.9219 20.6156 47.5593 20.88 48.0879 21.4086C48.6165 21.9372 48.8808 22.5435 48.8808 23.2276V27.1455C48.8808 27.8918 48.6165 28.5137 48.0879 29.0112C47.5593 29.5087 46.9219 29.7574 46.1756 29.7574H42.9107ZM18.2838 41.4179L18.6569 42.444C18.8435 41.9465 18.7191 41.6045 18.2838 41.4179ZM39.739 34.7015L39.8323 34.6082C39.8323 34.6082 39.8012 34.6393 39.739 34.7015ZM40.5786 33.3022C40.6408 33.24 40.7341 33.1778 40.8584 33.1156L40.5786 33.3022ZM18.3305 18.5168C18.3305 18.5168 18.7891 18.0581 19.7064 17.1408C20.6237 16.2235 22.3883 15.7649 25.0002 15.7649C27.6122 15.7649 29.8354 16.6822 31.67 18.5168C33.5046 20.3513 34.4219 22.5746 34.4219 25.1865C34.4219 27.7985 33.5046 30.0217 31.67 31.8563C29.8354 33.6909 27.6122 34.6082 25.0002 34.6082C22.3883 34.6082 20.165 33.6909 18.3305 31.8563C16.4959 30.0217 15.5786 27.7985 15.5786 25.1865C15.5786 22.5746 16.4959 20.3513 18.3305 18.5168ZM32.9293 25.1865C32.9293 25.1865 32.9293 24.6424 32.9293 23.5541C32.9293 22.4658 32.152 21.1443 30.5972 19.5895C29.0425 18.0348 27.1768 17.2574 25.0002 17.2574C22.8236 17.2574 20.9579 18.0348 19.4032 19.5895C17.8485 21.1443 17.0711 23.0099 17.0711 25.1865C17.0711 27.3632 17.8485 29.2288 19.4032 30.7836C20.9579 32.3383 22.8236 33.1156 25.0002 33.1156C27.1768 33.1156 29.0425 32.3383 30.5972 30.7836C32.152 29.2288 32.9293 27.3632 32.9293 25.1865ZM21.0357 21.222C21.0357 21.222 21.3078 20.9499 21.8519 20.4058C22.3961 19.8616 23.4455 19.5895 25.0002 19.5895C26.555 19.5895 27.8765 20.1337 28.9648 21.222C30.0531 22.3103 30.5972 23.6318 30.5972 25.1865C30.5972 26.7413 30.0375 28.0472 28.9181 29.1045C27.8609 30.2239 26.555 30.7836 25.0002 30.7836C23.4455 30.7836 22.124 30.2394 21.0357 29.1511C19.9474 28.0628 19.4032 26.7413 19.4032 25.1865C19.4032 23.6318 19.9474 22.3103 21.0357 21.222ZM29.1047 25.1865C29.1047 25.1865 29.1047 24.9067 29.1047 24.347C29.1047 23.7873 28.7005 23.1032 27.892 22.2948C27.0836 21.4863 26.1196 21.0821 25.0002 21.0821C23.8808 21.0821 22.9169 21.4863 22.1084 22.2948C21.3 23.1032 20.8957 24.0671 20.8957 25.1865C20.8957 26.3059 21.3 27.2699 22.1084 28.0783C22.9169 28.8868 23.8808 29.291 25.0002 29.291C26.1196 29.291 27.0836 28.8868 27.892 28.0783C28.7005 27.2699 29.1047 26.3059 29.1047 25.1865Z" fill="#C72127"/>
</svg>
