<svg width="45" height="46" viewBox="0 0 45 46" fill="none" xmlns="http://www.w3.org/2000/svg">
<g clip-path="url(#clip0_2_482)">
<path d="M43.9925 18.6105V42.9575C43.9925 43.4613 43.8526 43.8811 43.5727 44.2169V44.3008C43.125 44.8605 42.5373 45.1404 41.8097 45.1404H3.19028C2.46267 45.1404 1.87498 44.8605 1.42722 44.3008V44.2169C1.14737 43.8811 1.00745 43.4613 1.00745 42.9575V18.6105C1.00745 18.5546 1.02144 18.4986 1.04942 18.4426C1.07741 18.3867 1.0914 18.3447 1.0914 18.3167C1.0914 18.2887 1.10539 18.2607 1.13338 18.2327C1.16136 18.2047 1.20334 18.1628 1.25931 18.1068L8.14364 12.7337V7.19262C8.14364 6.57695 8.35353 6.05923 8.7733 5.63945C9.19308 5.21967 9.7108 5.00979 10.3265 5.00979H18.0504L21.1567 2.57508C22.0522 1.90344 22.9477 1.90344 23.8433 2.57508L26.9496 5.00979H34.6735C35.2892 5.00979 35.8069 5.21967 36.2267 5.63945C36.6464 6.05923 36.8563 6.57695 36.8563 7.19262V12.7337L43.7407 18.1068C43.7966 18.1628 43.8386 18.2047 43.8666 18.2327C43.8946 18.2607 43.9086 18.2887 43.9086 18.3167C43.9086 18.3447 43.9226 18.3867 43.9505 18.4426C43.9785 18.4986 43.9925 18.5546 43.9925 18.6105ZM22.0802 3.75046L20.4011 5.00979H24.5989L22.9198 3.75046C22.6399 3.52658 22.3601 3.52658 22.0802 3.75046ZM3.35819 43.7131H41.6418L22.9198 29.1889C22.6399 28.965 22.3601 28.965 22.0802 29.1889L3.35819 43.7131ZM42.5653 42.6217V19.7019L30.8115 28.8531C30.5877 29.021 30.3498 29.049 30.0979 28.937C29.8461 28.8251 29.6921 28.6432 29.6362 28.3913C29.5802 28.1394 29.6642 27.9296 29.888 27.7617L41.8936 18.4426L36.8563 14.4967V20.0378C36.8563 20.5415 36.6185 20.7934 36.1427 20.7934C35.667 20.7934 35.4291 20.5415 35.4291 20.0378V7.19262C35.4291 6.68889 35.1772 6.43702 34.6735 6.43702H10.3265C9.82274 6.43702 9.57088 6.68889 9.57088 7.19262V20.0378C9.57088 20.5415 9.33301 20.7934 8.85726 20.7934C8.38151 20.7934 8.14364 20.5415 8.14364 20.0378V14.4967L3.10633 18.4426L15.028 27.6777C15.4198 28.0135 15.4757 28.3633 15.1959 28.7271C14.916 29.0909 14.5802 29.1329 14.1884 28.8531L2.43469 19.7019V42.6217L21.1567 28.0135C22.0522 27.3419 22.9477 27.3419 23.8433 28.0135L42.5653 42.6217ZM31.0634 19.3661C31.0634 19.7019 30.9935 20.0518 30.8535 20.4156C30.7136 20.7794 30.5317 21.0872 30.3078 21.3391C30.0839 21.5909 29.8041 21.8008 29.4683 21.9687C29.1324 22.1367 28.7686 22.2206 28.3768 22.2206C27.6492 22.2766 26.9916 22.0527 26.4039 21.549C25.8162 21.0452 25.4664 20.4016 25.3545 19.618C24.6828 20.2896 23.8713 20.6674 22.9198 20.7514C21.9683 20.8353 21.0727 20.6255 20.2332 20.1217C19.3936 19.618 18.806 18.9184 18.4701 18.0228C18.1343 17.1273 18.0923 16.2178 18.3442 15.2943C18.5961 14.3708 19.1138 13.6152 19.8974 13.0275C20.681 12.4398 21.5485 12.146 22.5 12.146C23.0037 12.146 23.2556 12.3978 23.2556 12.9016C23.2556 13.4053 23.0037 13.6572 22.5 13.6572C21.7164 13.6572 21.0448 13.937 20.4851 14.4967C19.9254 15.0564 19.6455 15.7281 19.6455 16.5117C19.6455 17.2952 19.9254 17.9669 20.4851 18.5266C21.0448 19.0863 21.7164 19.3661 22.5 19.3661C23.2836 19.3661 23.9552 19.0863 24.5149 18.5266C25.0746 17.9669 25.3545 17.2952 25.3545 16.5117C25.3545 16.0079 25.5923 15.7561 26.0681 15.7561C26.5438 15.7561 26.7817 16.0079 26.7817 16.5117V19.3661C26.7817 19.7579 26.9216 20.0937 27.2015 20.3736C27.4813 20.6534 27.8171 20.7934 28.2089 20.7934C28.6007 20.7934 28.9365 20.6534 29.2164 20.3736C29.4963 20.0937 29.6362 19.7579 29.6362 19.3661V16.5117C29.6362 14.4967 28.9365 12.7896 27.5373 11.3904C26.138 9.99113 24.4589 9.2915 22.5 9.2915C21.2127 9.2915 20.0093 9.61333 18.8899 10.257C17.7705 10.9006 16.903 11.7682 16.2873 12.8596C15.6716 13.951 15.3638 15.1684 15.3638 16.5117C15.3638 18.4706 16.0634 20.1497 17.4627 21.549C18.8619 22.9482 20.541 23.6478 22.5 23.6478C23.0037 23.6478 23.2556 23.8857 23.2556 24.3615C23.2556 24.8372 23.0037 25.0751 22.5 25.0751C20.1492 25.0751 18.1343 24.2355 16.4552 22.5564C14.7761 20.8773 13.9366 18.8484 13.9366 16.4697C13.9366 14.0909 14.7761 12.062 16.4552 10.3829C18.1343 8.70381 20.1492 7.86426 22.5 7.86426C24.8507 7.86426 26.8657 8.70381 28.5448 10.3829C30.2239 12.062 31.0634 14.1049 31.0634 16.5117V19.3661Z" fill="#C72127"/>
</g>
<defs>
<clipPath id="clip0_2_482">
<rect width="45" height="45" fill="white" transform="matrix(1 0 0 -1 0 45.98)"/>
</clipPath>
</defs>
</svg>
