<svg width="53" height="54" viewBox="0 0 53 54" fill="none" xmlns="http://www.w3.org/2000/svg">
<path d="M43.0551 12.7285C44.1098 15.0357 44.6372 17.4748 44.6372 20.0457C44.6372 23.3417 43.7967 26.4235 42.1157 29.291C40.4347 32.1586 38.144 34.3834 35.2435 35.9655C33.5955 36.8883 32.7715 38.2727 32.7715 40.1184V46.1502C32.7715 47.0071 32.4584 47.7487 31.8321 48.375C31.2059 49.0012 30.4643 49.3143 29.6073 49.3143C29.6073 50.1713 29.2942 50.9129 28.6679 51.5391C28.0417 52.1654 27.3001 52.4785 26.4431 52.4785C25.5862 52.4785 24.8446 52.1654 24.2183 51.5391C23.5921 50.9129 23.2789 50.1713 23.2789 49.3143C22.422 49.3143 21.6804 49.0012 21.0541 48.375C20.4279 47.7487 20.1148 47.0071 20.1148 46.1502V40.1184C20.1148 38.2727 19.2908 36.8883 17.6427 35.9655C14.6763 34.3174 12.3526 32.0102 10.6717 29.0438C8.9907 26.0774 8.18317 22.8803 8.24909 19.4524C8.38093 14.838 10.0949 10.8333 13.3909 7.4384C16.6869 4.0435 20.6421 2.18125 25.2566 1.85165C30.5302 1.52205 35.0787 3.17006 38.9021 6.79568C40.6819 8.50961 42.0663 10.4872 43.0551 12.7285ZM24.6633 38.3386H28.223L31.486 23.4076C31.4201 23.4735 31.3212 23.5724 31.1894 23.7043C30.5302 24.3635 29.871 24.6931 29.2118 24.6931C28.5526 24.6931 27.8934 24.3635 27.2342 23.7043C26.9705 23.3087 26.7068 23.111 26.4431 23.111C26.1794 23.111 25.9158 23.3087 25.6521 23.7043C24.9929 24.3635 24.3172 24.6931 23.625 24.6931C22.9329 24.6931 22.2901 24.3635 21.6969 23.7043C21.565 23.5724 21.4661 23.4735 21.4002 23.4076L24.6633 38.3386ZM24.07 39.8218H21.598C21.598 39.9536 21.598 40.0525 21.598 40.1184V41.5028H31.2883V40.1184C31.2883 40.0525 31.2883 39.9536 31.2883 39.8218H28.8163H24.07ZM21.598 42.986V44.6669H31.2883V42.986H21.598ZM28.1241 49.3143H24.7622C24.7622 49.7758 24.927 50.1713 25.2566 50.5009C25.5862 50.8305 25.9817 50.9953 26.4431 50.9953C26.9046 50.9953 27.3001 50.8305 27.6297 50.5009C27.9593 50.1713 28.1241 49.7758 28.1241 49.3143ZM29.6073 47.8311C29.8051 47.8311 30.0193 47.7817 30.25 47.6828C30.4807 47.5839 30.662 47.4686 30.7939 47.3367C30.9257 47.2049 31.0411 47.0401 31.14 46.8423C31.2388 46.6446 31.2883 46.4138 31.2883 46.1502H21.598C21.598 46.6116 21.7628 47.0071 22.0924 47.3367C22.422 47.6663 22.8175 47.8311 23.2789 47.8311H29.6073ZM34.4525 34.68C37.1552 33.1638 39.2811 31.1038 40.8303 28.5C42.3794 25.8961 43.1539 23.078 43.1539 20.0457C43.1539 15.2335 41.4071 11.1794 37.9133 7.88337C34.6832 4.85103 30.8598 3.33486 26.4431 3.33486C26.1135 3.33486 25.751 3.33486 25.3554 3.33486C22.5868 3.53262 20.0159 4.37311 17.6427 5.85631C15.2696 7.33952 13.3909 9.28418 12.0066 11.6903C10.6222 14.0964 9.86414 16.6837 9.7323 19.4524C9.7323 21.0345 9.91358 22.5836 10.2761 24.0998C10.6387 25.616 11.199 27.0168 11.9571 28.3022C12.7152 29.5877 13.6381 30.7742 14.7258 31.8619C15.8135 32.9496 17.0495 33.889 18.4338 34.68C19.884 35.4711 20.8728 36.6906 21.4002 38.3386H23.1801L19.4226 20.9356C19.2908 20.4742 19.472 20.194 19.9664 20.0951C20.4608 19.9962 20.741 20.1775 20.8069 20.639L21.0047 21.6278C21.6639 21.6937 22.2901 22.0563 22.8834 22.7155C23.1471 23.0451 23.4108 23.2099 23.6745 23.2099C23.9381 23.2099 24.2018 23.0451 24.4655 22.7155C25.1247 21.9903 25.7839 21.6278 26.4431 21.6278C27.1023 21.6278 27.7615 21.9903 28.4207 22.7155C28.6844 23.0451 28.9481 23.2099 29.2118 23.2099C29.4755 23.2099 29.7391 23.0451 30.0028 22.7155C30.5961 22.0563 31.2224 21.6937 31.8816 21.6278L32.0793 20.639C32.1452 20.1775 32.4254 19.9962 32.9198 20.0951C33.4142 20.194 33.5955 20.4742 33.4636 20.9356L29.7062 38.3386H31.486C32.0134 36.6906 33.0022 35.4711 34.4525 34.68ZM30.5961 5.60911C31.0576 5.74095 31.2224 6.0376 31.0905 6.49904C31.0246 6.89456 30.7939 7.09232 30.3983 7.09232C30.3324 7.09232 30.2665 7.05936 30.2006 6.99344C29.7391 6.8616 29.2447 6.76272 28.7174 6.6968C28.19 6.63088 27.9758 6.35072 28.0747 5.85631C28.1735 5.36191 28.4537 5.14767 28.9151 5.21359C29.5084 5.34543 30.0687 5.47727 30.5961 5.60911ZM12.9954 21.5289C13.0613 22.0563 13.1437 22.5671 13.2426 23.0615C13.3414 23.5559 13.1602 23.8361 12.6987 23.902C12.6328 23.902 12.5669 23.902 12.501 23.902C12.1054 23.902 11.8747 23.7372 11.8088 23.4076C11.677 22.8143 11.5781 22.254 11.5122 21.7267C11.4462 21.1993 11.6605 20.9191 12.1549 20.8862C12.6493 20.8532 12.9294 21.0674 12.9954 21.5289ZM18.9282 31.3181C19.3896 31.5817 19.4556 31.9114 19.126 32.3069C18.9941 32.5706 18.7964 32.7024 18.5327 32.7024C18.4008 32.7024 18.269 32.6365 18.1372 32.5046C15.8959 31.0544 14.1819 29.1097 12.9954 26.6707C12.7976 26.2752 12.913 25.962 13.3414 25.7313C13.7699 25.5006 14.083 25.616 14.2808 26.0774C15.4015 28.1868 16.9506 29.9337 18.9282 31.3181ZM39.3965 12.5308C39.6602 12.9263 39.5942 13.2559 39.1987 13.5196C39.0669 13.5855 38.935 13.6184 38.8032 13.6184C38.5395 13.6184 38.3088 13.4866 38.111 13.2229C36.7926 10.9816 34.9798 9.23473 32.6726 7.98225C32.2112 7.78449 32.0958 7.45488 32.3265 6.99344C32.5572 6.532 32.9033 6.43312 33.3648 6.6968C35.9357 8.01521 37.9462 9.95986 39.3965 12.5308Z" fill="#C72127"/>
</svg>
