<svg width="50" height="50" viewBox="0 0 50 50" fill="none" xmlns="http://www.w3.org/2000/svg">
<path d="M40.6719 11.5671C41.6669 13.7438 42.1644 16.0448 42.1644 18.4701C42.1644 21.5796 41.3715 24.4869 39.7857 27.1921C38.1998 29.8974 36.0388 31.9962 33.3025 33.4888C31.7477 34.3594 30.9704 35.6654 30.9704 37.4067V43.097C30.9704 43.9054 30.675 44.6051 30.0842 45.1959C29.4934 45.7867 28.7938 46.0821 27.9853 46.0821C27.9853 46.8905 27.6899 47.5901 27.0991 48.1809C26.5083 48.7717 25.8087 49.0671 25.0002 49.0671C24.1918 49.0671 23.4921 48.7717 22.9013 48.1809C22.3105 47.5901 22.0151 46.8905 22.0151 46.0821C21.2067 46.0821 20.5071 45.7867 19.9163 45.1959C19.3255 44.6051 19.0301 43.9054 19.0301 43.097V37.4067C19.0301 35.6654 18.2527 34.3594 16.698 33.4888C13.8995 31.9341 11.7073 29.7574 10.1215 26.9589C8.53567 24.1604 7.77385 21.1443 7.83604 17.9104C7.96042 13.5572 9.57733 9.77921 12.6868 6.57647C15.7962 3.37373 19.5276 1.61689 23.8808 1.30595C28.8559 0.995003 33.147 2.54973 36.754 5.97013C38.4331 7.58704 39.739 9.45271 40.6719 11.5671ZM23.3211 35.7276H26.6793L29.7577 21.6418C29.6955 21.704 29.6022 21.7972 29.4778 21.9216C28.8559 22.5435 28.234 22.8545 27.6122 22.8545C26.9903 22.8545 26.3684 22.5435 25.7465 21.9216C25.4977 21.5485 25.249 21.3619 25.0002 21.3619C24.7515 21.3619 24.5027 21.5485 24.254 21.9216C23.6321 22.5435 22.9946 22.8545 22.3416 22.8545C21.6887 22.8545 21.0823 22.5435 20.5226 21.9216C20.3982 21.7972 20.3049 21.704 20.2428 21.6418L23.3211 35.7276ZM22.7614 37.1268H20.4293C20.4293 37.2512 20.4293 37.3445 20.4293 37.4067V38.7127H29.5711V37.4067C29.5711 37.3445 29.5711 37.2512 29.5711 37.1268H27.239H22.7614ZM20.4293 40.1119V41.6977H29.5711V40.1119H20.4293ZM26.586 46.0821H23.4144C23.4144 46.5174 23.5699 46.8905 23.8808 47.2015C24.1918 47.5124 24.5649 47.6679 25.0002 47.6679C25.4355 47.6679 25.8087 47.5124 26.1196 47.2015C26.4306 46.8905 26.586 46.5174 26.586 46.0821ZM27.9853 44.6828C28.1719 44.6828 28.374 44.6362 28.5916 44.5429C28.8093 44.4496 28.9803 44.3408 29.1047 44.2164C29.2291 44.092 29.3379 43.9365 29.4312 43.75C29.5245 43.5634 29.5711 43.3457 29.5711 43.097H20.4293C20.4293 43.5323 20.5848 43.9054 20.8957 44.2164C21.2067 44.5273 21.5798 44.6828 22.0151 44.6828H27.9853ZM32.5562 32.2761C35.1059 30.8457 37.1115 28.9023 38.573 26.4459C40.0344 23.9894 40.7651 21.3308 40.7651 18.4701C40.7651 13.9303 39.1171 10.1057 35.8211 6.99625C32.7739 4.13555 29.1669 2.7052 25.0002 2.7052C24.6893 2.7052 24.3472 2.7052 23.9741 2.7052C21.3622 2.89177 18.9368 3.68468 16.698 5.08393C14.4592 6.48318 12.6868 8.31776 11.3808 10.5877C10.0748 12.8576 9.35967 15.2985 9.23529 17.9104C9.23529 19.403 9.40631 20.8644 9.74835 22.2948C10.0904 23.7251 10.619 25.0466 11.3342 26.2593C12.0493 27.472 12.92 28.5914 13.9461 29.6175C14.9722 30.6436 16.1383 31.5298 17.4442 32.2761C18.8124 33.0224 19.7452 34.1729 20.2428 35.7276H21.9219L18.3771 19.3097C18.2527 18.8744 18.4237 18.6101 18.8901 18.5168C19.3566 18.4235 19.6209 18.5945 19.6831 19.0298L19.8696 19.9627C20.4915 20.0249 21.0823 20.3669 21.642 20.9888C21.8908 21.2997 22.1395 21.4552 22.3883 21.4552C22.637 21.4552 22.8858 21.2997 23.1345 20.9888C23.7564 20.3047 24.3783 19.9627 25.0002 19.9627C25.6221 19.9627 26.244 20.3047 26.8659 20.9888C27.1146 21.2997 27.3634 21.4552 27.6122 21.4552C27.8609 21.4552 28.1097 21.2997 28.3584 20.9888C28.9181 20.3669 29.5089 20.0249 30.1308 19.9627L30.3174 19.0298C30.3796 18.5945 30.6439 18.4235 31.1103 18.5168C31.5767 18.6101 31.7477 18.8744 31.6234 19.3097L28.0786 35.7276H29.7577C30.2552 34.1729 31.188 33.0224 32.5562 32.2761ZM28.9181 4.85072C29.3535 4.9751 29.5089 5.25495 29.3845 5.69027C29.3224 6.06341 29.1047 6.24998 28.7316 6.24998C28.6694 6.24998 28.6072 6.21888 28.545 6.15669C28.1097 6.03231 27.6433 5.93903 27.1457 5.87684C26.6482 5.81465 26.4461 5.55035 26.5394 5.08393C26.6327 4.61751 26.897 4.4154 27.3323 4.47759C27.892 4.60197 28.4206 4.72635 28.9181 4.85072ZM12.3137 19.8694C12.3758 20.3669 12.4536 20.8489 12.5469 21.3153C12.6401 21.7817 12.4691 22.046 12.0338 22.1082C11.9716 22.1082 11.9094 22.1082 11.8472 22.1082C11.4741 22.1082 11.2564 21.9527 11.1942 21.6418C11.0699 21.0821 10.9766 20.5535 10.9144 20.0559C10.8522 19.5584 11.0543 19.2941 11.5207 19.263C11.9872 19.2319 12.2515 19.4341 12.3137 19.8694ZM17.9107 29.1045C18.346 29.3532 18.4082 29.6642 18.0972 30.0373C17.9729 30.286 17.7863 30.4104 17.5375 30.4104C17.4132 30.4104 17.2888 30.3482 17.1644 30.2239C15.05 28.8557 13.4331 27.0211 12.3137 24.7201C12.1271 24.347 12.2359 24.0516 12.6401 23.8339C13.0444 23.6163 13.3398 23.7251 13.5263 24.1604C14.5836 26.1505 16.045 27.7985 17.9107 29.1045ZM37.2204 11.3806C37.4691 11.7537 37.4069 12.0647 37.0338 12.3134C36.9094 12.3756 36.785 12.4067 36.6607 12.4067C36.4119 12.4067 36.1942 12.2823 36.0077 12.0336C34.7639 9.91913 33.0537 8.27112 30.8771 7.08953C30.4418 6.90296 30.3329 6.59201 30.5506 6.15669C30.7683 5.72137 31.0947 5.62809 31.5301 5.87684C33.9554 7.12062 35.8522 8.9552 37.2204 11.3806Z" fill="#C72127"/>
</svg>
