<svg width="51" height="51" viewBox="0 0 51 51" fill="none" xmlns="http://www.w3.org/2000/svg">
<path d="M45.4991 24.9278C45.9966 24.9278 46.2453 25.1766 46.2453 25.6741C46.2453 26.1716 45.9966 26.4204 45.4991 26.4204H37.6632C37.6011 30.2139 37.1035 33.7898 36.1707 37.148H41.3013C41.7988 37.148 42.0476 37.4123 42.0476 37.9409C42.0476 38.4695 41.7988 38.7338 41.3013 38.7338H35.7043C34.8958 41.2214 33.8697 43.3358 32.6259 45.0771C32.4394 45.2636 32.2217 45.3569 31.9729 45.3569C31.8486 45.3569 31.6931 45.3258 31.5065 45.2636C31.1334 44.9527 31.1023 44.5796 31.4132 44.1442C32.4705 42.6517 33.3722 40.8482 34.1185 38.7338H26.1894V45.7301C26.1894 46.2276 25.9406 46.4763 25.4431 46.4763C24.9456 46.4763 24.6968 46.2276 24.6968 45.7301V38.7338H16.7677C17.514 40.8482 18.4157 42.6517 19.4729 44.1442C19.7839 44.5796 19.7528 44.9527 19.3797 45.2636C19.1931 45.3258 19.0376 45.3569 18.9132 45.3569C18.6645 45.3569 18.4468 45.2636 18.2603 45.0771C17.0165 43.3358 15.9904 41.2214 15.1819 38.7338H9.58489C9.08738 38.7338 8.83862 38.4695 8.83862 37.9409C8.83862 37.4123 9.08738 37.148 9.58489 37.148H14.7155C13.7826 33.7898 13.2851 30.2139 13.2229 26.4204H5.38713C4.88961 26.4204 4.64086 26.1716 4.64086 25.6741C4.64086 25.1766 4.88961 24.9278 5.38713 24.9278H13.2229C13.2851 21.1343 13.7826 17.5584 14.7155 14.2002H9.58489C9.08738 14.2002 8.83862 13.9359 8.83862 13.4073C8.83862 12.8787 9.08738 12.6144 9.58489 12.6144H15.1819C15.9904 10.1268 17.0165 8.0124 18.2603 6.27111C18.5712 5.83578 18.9288 5.77359 19.333 6.08454C19.7373 6.39549 19.7839 6.76862 19.4729 7.20394C18.4157 8.69648 17.514 10.5 16.7677 12.6144H24.6968V5.61812C24.6968 5.12061 24.9456 4.87185 25.4431 4.87185C25.9406 4.87185 26.1894 5.12061 26.1894 5.61812V12.6144H34.1185C33.3722 10.5 32.4705 8.69648 31.4132 7.20394C31.1023 6.76862 31.1489 6.39549 31.5532 6.08454C31.9574 5.77359 32.315 5.83578 32.6259 6.27111C33.8697 8.0124 34.8958 10.1268 35.7043 12.6144H41.3013C41.7988 12.6144 42.0476 12.8787 42.0476 13.4073C42.0476 13.9359 41.7988 14.2002 41.3013 14.2002H36.1707C37.1035 17.5584 37.6011 21.1343 37.6632 24.9278H45.4991ZM34.5849 14.2002H26.1894V24.9278H36.1707C36.1085 21.0721 35.5799 17.4962 34.5849 14.2002ZM16.3013 14.2002C15.3063 17.4962 14.7777 21.0721 14.7155 24.9278H24.6968V14.2002H16.3013ZM16.3013 37.148H24.6968V26.4204H14.7155C14.7777 30.2761 15.3063 33.852 16.3013 37.148ZM34.5849 37.148C35.5799 33.852 36.1085 30.2761 36.1707 26.4204H26.1894V37.148H34.5849ZM25.4431 1.7935C25.4431 1.7935 27.0911 1.7935 30.3871 1.7935C33.6831 1.7935 37.6632 4.12558 42.3274 8.78976C46.9916 13.4539 49.3237 19.0821 49.3237 25.6741C49.3237 32.2661 46.9916 37.8942 42.3274 42.5584C37.6632 47.2226 32.0351 49.5547 25.4431 49.5547C20.6545 49.5547 16.2702 48.2487 12.2901 45.6368L3.52146 48.5286C3.21051 48.6529 2.94621 48.6063 2.72854 48.3886C2.51088 48.171 2.46424 47.9067 2.58862 47.5957L5.48041 38.8271C2.86847 34.847 1.5625 30.4626 1.5625 25.6741C1.5625 19.0821 3.89459 13.4539 8.55877 8.78976C13.2229 4.12558 18.8511 1.7935 25.4431 1.7935ZM25.4431 48.0622C31.5998 48.0622 36.8703 45.87 41.2547 41.4857C45.639 37.1013 47.8312 31.8308 47.8312 25.6741C47.8312 21.6318 46.8206 17.9005 44.7994 14.4801C42.7783 11.0597 40.0575 8.33889 36.6371 6.31775C33.2167 4.2966 29.4854 3.28603 25.4431 3.28603C19.2864 3.28603 14.0159 5.4782 9.63153 9.86252C5.2472 14.2469 3.05504 19.5174 3.05504 25.6741C3.05504 30.2761 4.36101 34.4738 6.97295 38.2674C7.09733 38.4539 7.12842 38.6716 7.06623 38.9204L4.54757 46.5696L12.1968 44.051C12.259 44.051 12.3212 44.051 12.3834 44.051C12.57 44.051 12.7254 44.0821 12.8498 44.1442C16.6433 46.7562 20.8411 48.0622 25.4431 48.0622Z" fill="#C72127"/>
</svg>
