<svg width="16" height="16" viewBox="0 0 16 16" fill="none" xmlns="http://www.w3.org/2000/svg">
<path d="M10.9057 3.28844L15.4393 7.82202C15.5326 7.91531 15.5792 8.03658 15.5792 8.18583C15.5792 8.33508 15.5326 8.45635 15.4393 8.54964L10.9057 13.0832C10.8124 13.1765 10.6912 13.2231 10.5419 13.2231C10.3926 13.2231 10.2714 13.1718 10.1781 13.0692C10.0848 12.9666 10.0382 12.8453 10.0382 12.7054C10.0382 12.5655 10.0848 12.4489 10.1781 12.3556L13.8441 8.68956H1.75459C1.6613 8.68956 1.57735 8.66624 1.50272 8.6196C1.42809 8.57296 1.36746 8.51232 1.32082 8.4377C1.27418 8.36307 1.25085 8.27911 1.25085 8.18583C1.25085 8.03658 1.30216 7.91531 1.40477 7.82202C1.50738 7.72874 1.62399 7.6821 1.75459 7.6821H13.8441L10.1781 4.01605C10.0848 3.92277 10.0382 3.80617 10.0382 3.66624C10.0382 3.52632 10.0848 3.40505 10.1781 3.30244C10.2714 3.19982 10.3926 3.14852 10.5419 3.14852C10.6912 3.14852 10.8124 3.19516 10.9057 3.28844Z" fill="#232323"/>
</svg>
