<svg width="50" height="50" viewBox="0 0 50 50" fill="none" xmlns="http://www.w3.org/2000/svg">
<path d="M21.7353 42.5373C22.4194 42.7239 23.0102 43.1125 23.5077 43.7033C24.0052 44.2941 24.254 44.9938 24.254 45.8022C24.254 46.6729 23.9275 47.4347 23.2745 48.0877C22.6215 48.7406 21.8441 49.0671 20.9424 49.0671C20.0406 49.0671 19.2633 48.7406 18.6103 48.0877C17.9573 47.4347 17.6308 46.6729 17.6308 45.8022C17.6308 44.9938 17.864 44.2941 18.3305 43.7033C18.7969 43.1125 19.4032 42.7239 20.1495 42.5373V31.0634H15.8584C15.3609 31.0634 15.1122 30.8147 15.1122 30.3171C15.1122 29.8196 15.3609 29.5709 15.8584 29.5709H20.8957C21.4554 29.5709 21.7353 29.8196 21.7353 30.3171V42.5373ZM20.0096 47.3414C20.0096 47.3414 20.0795 47.3803 20.2194 47.458C20.3594 47.5357 20.6003 47.5746 20.9424 47.5746C21.2844 47.5746 21.5798 47.4969 21.8286 47.3414C22.0773 47.1859 22.2795 46.9683 22.4349 46.6884C22.5904 46.4086 22.6681 46.1132 22.6681 45.8022C22.6681 45.3047 22.4971 44.8849 22.1551 44.5429C21.813 44.2008 21.4088 44.0298 20.9424 44.0298C20.476 44.0298 20.0562 44.2008 19.6831 44.5429C19.3099 44.8849 19.1234 45.3047 19.1234 45.8022C19.1234 46.1132 19.2011 46.4086 19.3566 46.6884C19.512 46.9683 19.7297 47.1859 20.0096 47.3414ZM29.851 42.5373C30.5972 42.7239 31.2036 43.1125 31.67 43.7033C32.1364 44.2941 32.3696 44.9938 32.3696 45.8022C32.3696 46.6729 32.0431 47.4347 31.3902 48.0877C30.7372 48.7406 29.9598 49.0671 29.0581 49.0671C28.1563 49.0671 27.379 48.7406 26.726 48.0877C26.073 47.4347 25.7465 46.6729 25.7465 45.8022C25.7465 44.9938 25.9953 44.2941 26.4928 43.7033C26.9903 43.1125 27.5811 42.7239 28.2652 42.5373V31.0634H23.9741C23.4766 31.0634 23.2278 30.8147 23.2278 30.3171C23.2278 29.8196 23.4766 29.5709 23.9741 29.5709H29.1047C29.6022 29.5709 29.851 29.8196 29.851 30.3171V42.5373ZM28.1719 47.3414C28.1719 47.3414 28.2341 47.3803 28.3584 47.458C28.4828 47.5357 28.716 47.5746 29.0581 47.5746C29.4001 47.5746 29.711 47.4969 29.9909 47.3414C30.2707 47.1859 30.4884 46.9683 30.6439 46.6884C30.7994 46.4086 30.8771 46.1132 30.8771 45.8022C30.8771 45.3047 30.6905 44.8849 30.3174 44.5429C29.9443 44.2008 29.5245 44.0298 29.0581 44.0298C28.5916 44.0298 28.1874 44.2008 27.8454 44.5429C27.5033 44.8849 27.3323 45.3047 27.3323 45.8022C27.3323 46.1132 27.4101 46.4086 27.5655 46.6884C27.721 46.9683 27.9231 47.1859 28.1719 47.3414ZM42.8174 37.4067C43.688 37.4067 44.4499 37.7176 45.1028 38.3395C45.7558 38.9614 46.0823 39.7388 46.0823 40.6716C46.0823 41.6045 45.7558 42.3974 45.1028 43.0503C44.4499 43.7033 43.688 44.0298 42.8174 44.0298C42.0089 44.0298 41.3093 43.7811 40.7185 43.2836C40.1277 42.786 39.739 42.1642 39.5525 41.4179H37.2204C36.7229 41.4179 36.4741 41.1691 36.4741 40.6716V31.0634H32.0898C31.5923 31.0634 31.3435 30.8147 31.3435 30.3171C31.3435 29.8196 31.5923 29.5709 32.0898 29.5709H37.2204C37.7179 29.5709 37.9666 29.8196 37.9666 30.3171V39.9253H39.5525C39.739 39.1791 40.1277 38.5727 40.7185 38.1063C41.3093 37.6399 42.0089 37.4067 42.8174 37.4067ZM42.8174 42.444C43.3149 42.444 43.7347 42.273 44.0767 41.9309C44.4188 41.5889 44.5898 41.1691 44.5898 40.6716C44.5898 40.1741 44.4188 39.7543 44.0767 39.4123C43.7347 39.0702 43.3149 38.8992 42.8174 38.8992C42.3199 38.8992 41.9001 39.0702 41.5581 39.4123C41.216 39.7543 41.045 40.1741 41.045 40.6716C41.045 40.9826 41.1227 41.278 41.2782 41.5578C41.4337 41.8377 41.6358 42.0553 41.8846 42.2108C42.1333 42.3663 42.4443 42.444 42.8174 42.444ZM47.1084 17.7239C48.29 19.2164 48.8808 20.9266 48.8808 22.8545C48.8808 25.1554 48.0724 27.0989 46.4554 28.6847C44.8385 30.2705 42.9107 31.0634 40.6719 31.0634H40.2054C39.7079 31.0634 39.4592 30.8147 39.4592 30.3171C39.4592 29.8196 39.7079 29.5709 40.2054 29.5709H40.6719C41.2938 29.5709 41.8846 29.4931 42.4443 29.3377C43.004 29.1822 43.5326 28.9645 44.0301 28.6847C44.5276 28.4048 44.9785 28.0472 45.3827 27.6119C45.7869 27.1766 46.129 26.7257 46.4088 26.2593C46.6887 25.7929 46.9219 25.2643 47.1084 24.6735C47.295 24.0827 47.3883 23.4763 47.3883 22.8545C47.3883 21.2997 46.9063 19.916 45.9424 18.7033C44.9785 17.4906 43.7191 16.6977 42.1644 16.3246C41.7913 16.2624 41.6047 16.0137 41.6047 15.5783C41.5425 12.0957 40.2521 9.09512 37.7334 6.57647C35.2148 4.05781 32.1831 2.79848 28.6383 2.79848C26.3373 2.79848 24.1762 3.40483 22.1551 4.61751C20.1339 5.8302 18.5326 7.46266 17.351 9.5149C17.1644 9.88803 16.8535 9.98132 16.4181 9.79475C15.7962 9.546 15.1122 9.42162 14.3659 9.42162C13.1221 9.42162 12.0183 9.84139 11.0543 10.6809C10.0904 11.5205 9.54625 12.5622 9.42187 13.8059C9.35968 14.1791 9.14202 14.3967 8.76888 14.4589C7.02759 14.8321 5.56615 15.7183 4.38455 17.1175C3.20296 18.5168 2.61217 20.1181 2.61217 21.9216C2.61217 24.036 3.35843 25.8395 4.85097 27.3321C6.34351 28.8246 8.14699 29.5709 10.2614 29.5709H12.7801C13.2776 29.5709 13.5263 29.8196 13.5263 30.3171V40.6716C13.5263 41.1691 13.2776 41.4179 12.7801 41.4179H10.448C10.2614 42.1642 9.87274 42.786 9.28194 43.2836C8.69115 43.7811 7.99152 44.0298 7.18306 44.0298C6.31241 44.0298 5.5506 43.7033 4.89761 43.0503C4.24463 42.3974 3.91814 41.6045 3.91814 40.6716C3.91814 39.7388 4.24463 38.9614 4.89761 38.3395C5.5506 37.7176 6.31241 37.4067 7.18306 37.4067C7.99152 37.4067 8.69115 37.6399 9.28194 38.1063C9.87274 38.5727 10.2614 39.1791 10.448 39.9253H12.0338V31.0634H10.2614C7.77386 31.0634 5.62834 30.1772 3.82485 28.4048C2.02137 26.6324 1.11963 24.4714 1.11963 21.9216C1.11963 19.8694 1.75707 18.0193 3.03194 16.3712C4.30682 14.7232 5.93928 13.6194 7.92933 13.0597C8.30246 11.5671 9.07983 10.3389 10.2614 9.37498C11.443 8.41105 12.8112 7.92908 14.3659 7.92908C15.05 7.92908 15.7341 8.02237 16.4181 8.20893C17.2888 6.77858 18.3615 5.55035 19.6364 4.52423C20.9113 3.49811 22.3261 2.7052 23.8808 2.1455C25.4355 1.5858 27.0214 1.30595 28.6383 1.30595C32.6184 1.30595 36.0077 2.7052 38.8062 5.50371C41.4803 8.11565 42.9107 11.2873 43.0972 15.0186C44.7142 15.5161 46.0512 16.4179 47.1084 17.7239ZM5.92373 41.9309C5.92373 41.9309 6.00924 42.0165 6.18026 42.1875C6.35128 42.3585 6.68555 42.444 7.18306 42.444C7.68057 42.444 8.10035 42.273 8.44239 41.9309C8.78443 41.5889 8.95545 41.1691 8.95545 40.6716C8.95545 40.1741 8.78443 39.7543 8.44239 39.4123C8.10035 39.0702 7.68057 38.8992 7.18306 38.8992C6.87212 38.8992 6.57672 38.977 6.29687 39.1324C6.01702 39.2879 5.79936 39.5056 5.64388 39.7854C5.48841 40.0653 5.41067 40.3607 5.41067 40.6716C5.41067 41.1691 5.58169 41.5889 5.92373 41.9309ZM39.086 15.6716C39.086 16.1691 38.8217 16.4179 38.2931 16.4179C37.7645 16.4179 37.5002 16.1691 37.5002 15.6716C37.5002 14.6144 37.3137 13.5572 36.9405 12.5C36.754 12.0647 36.8939 11.7537 37.3603 11.5671C37.8267 11.3806 38.1532 11.505 38.3398 11.9403C38.7751 13.1219 39.0239 14.3656 39.086 15.6716ZM35.5413 10.1679C33.7378 7.99127 31.4368 6.90296 28.6383 6.90296C28.1408 6.90296 27.892 6.65421 27.892 6.15669C27.892 5.65918 28.1408 5.41042 28.6383 5.41042C31.9343 5.41042 34.6084 6.65421 36.6607 9.14177C36.9716 9.5149 36.9405 9.88803 36.5674 10.2612C36.443 10.3234 36.2875 10.3545 36.101 10.3545C35.8522 10.3545 35.6656 10.2923 35.5413 10.1679Z" fill="#C72127"/>
</svg>
