<svg width="46" height="47" viewBox="0 0 46 47" fill="none" xmlns="http://www.w3.org/2000/svg">
<path d="M41.1081 14.5429C41.1081 14.5429 41.3799 14.5429 41.9234 14.5429C42.467 14.5429 43.1106 14.9148 43.8544 15.6586C44.5982 16.4024 44.9701 17.3178 44.9701 18.4049C44.9701 19.4919 44.5982 20.4074 43.8544 21.1511L34.4999 30.5056V41.9198C34.4999 43.0069 34.128 43.9223 33.3843 44.6661C32.6405 45.4098 31.7251 45.7817 30.638 45.7817H4.89173C3.80466 45.7817 2.88924 45.4098 2.14546 44.6661C1.40168 43.9223 1.02979 43.0069 1.02979 41.9198V5.70338C1.02979 4.61631 1.40168 3.70089 2.14546 2.95711C2.88924 2.21333 3.80466 1.84144 4.89173 1.84144H27.0335C28.0634 1.84144 28.9502 2.21333 29.694 2.95711L33.3843 6.64741C34.128 7.39119 34.4999 8.27801 34.4999 9.30786V19.5205C35.8159 18.2046 37.1032 16.9173 38.3619 15.6586C39.1057 14.9148 40.0211 14.5429 41.1081 14.5429ZM26.7761 4.41607V9.56532H31.9253C31.9253 9.05039 31.8109 8.6785 31.582 8.44965L27.8917 4.75935C27.6629 4.53049 27.291 4.41607 26.7761 4.41607ZM31.9253 41.9198V33.0802L31.7537 33.1661C31.6392 33.3377 31.4676 33.4521 31.2387 33.5093L25.832 35.3116C25.3171 35.4832 24.8737 35.3831 24.5018 35.0112C24.1299 34.6393 24.0298 34.1959 24.2014 33.681L26.0037 28.2743C26.0609 28.0454 26.1753 27.8738 26.347 27.7593L28.1492 25.9571L31.9253 22.0952V12.1399H25.4887C25.2599 12.1399 25.0453 12.0827 24.8451 11.9683C24.6448 11.8539 24.4875 11.6965 24.3731 11.4963C24.2586 11.296 24.2014 11.0815 24.2014 10.8526V4.41607H4.89173C4.54844 4.41607 4.24807 4.5448 3.99061 4.80226C3.73314 5.05972 3.60441 5.3601 3.60441 5.70338V41.9198C3.60441 42.2631 3.73314 42.5635 3.99061 42.8209C4.24807 43.0784 4.54844 43.2071 4.89173 43.2071H30.638C30.9813 43.2071 31.2817 43.0784 31.5391 42.8209C31.7966 42.5635 31.9253 42.2631 31.9253 41.9198ZM29.0074 28.6176L28.3208 29.3899L27.4626 32.0504L30.1231 31.1922L30.8955 30.5056L29.0074 28.6176ZM32.6977 28.6176L38.8768 22.4385L37.0746 20.6362C36.9601 20.7506 35.9875 21.7233 34.1567 23.5541C32.3258 25.385 31.2387 26.472 30.8955 26.8153L32.6977 28.6176ZM42.0522 19.3489C42.6243 18.7195 42.61 18.1045 42.0093 17.5038C41.4085 16.903 40.7935 16.8887 40.1641 17.4608L38.8768 18.834L40.679 20.6362L42.0522 19.3489ZM25.4887 14.7146C25.832 14.7146 26.1324 14.8433 26.3899 15.1008C26.6473 15.3582 26.7761 15.6586 26.7761 16.0019C26.7761 16.3452 26.6473 16.6455 26.3899 16.903C26.1324 17.1605 25.832 17.2892 25.4887 17.2892H7.46635C7.2375 17.2892 7.02294 17.232 6.8227 17.1176C6.62245 17.0031 6.46511 16.8458 6.35068 16.6455C6.23625 16.4453 6.17904 16.2307 6.17904 16.0019C6.17904 15.6586 6.30777 15.3582 6.56523 15.1008C6.8227 14.8433 7.12307 14.7146 7.46635 14.7146H25.4887ZM20.3395 19.8638C20.6828 19.8638 20.9831 19.9926 21.2406 20.25C21.4981 20.5075 21.6268 20.8079 21.6268 21.1511C21.6268 21.4944 21.4981 21.7948 21.2406 22.0523C20.9831 22.3097 20.6828 22.4385 20.3395 22.4385H7.46635C7.2375 22.4385 7.02294 22.3812 6.8227 22.2668C6.62245 22.1524 6.46511 21.995 6.35068 21.7948C6.23625 21.5945 6.17904 21.38 6.17904 21.1511C6.17904 20.8079 6.30777 20.5075 6.56523 20.25C6.8227 19.9926 7.12307 19.8638 7.46635 19.8638H20.3395ZM20.3395 25.0131C20.6828 25.0131 20.9831 25.1418 21.2406 25.3993C21.4981 25.6567 21.6268 25.9571 21.6268 26.3004C21.6268 26.6437 21.4981 26.9441 21.2406 27.2015C20.9831 27.459 20.6828 27.5877 20.3395 27.5877H7.46635C7.2375 27.5877 7.02294 27.5305 6.8227 27.4161C6.62245 27.3016 6.46511 27.1443 6.35068 26.9441C6.23625 26.7438 6.17904 26.5292 6.17904 26.3004C6.17904 25.9571 6.30777 25.6567 6.56523 25.3993C6.8227 25.1418 7.12307 25.0131 7.46635 25.0131H20.3395ZM20.3395 30.1623C20.6828 30.1623 20.9831 30.2911 21.2406 30.5485C21.4981 30.806 21.6268 31.1064 21.6268 31.4496C21.6268 31.7929 21.4981 32.0933 21.2406 32.3508C20.9831 32.6082 20.6828 32.737 20.3395 32.737H7.46635C7.12307 32.737 6.8227 32.6082 6.56523 32.3508C6.30777 32.0933 6.17904 31.7929 6.17904 31.4496C6.17904 31.1064 6.30777 30.806 6.56523 30.5485C6.8227 30.2911 7.12307 30.1623 7.46635 30.1623H20.3395ZM25.4887 38.0579C25.832 38.0579 26.1324 38.1866 26.3899 38.4441C26.6473 38.7015 26.7761 39.0019 26.7761 39.3452C26.7761 39.6885 26.6473 39.9888 26.3899 40.2463C26.1324 40.5038 25.832 40.6325 25.4887 40.6325H17.7649C17.4216 40.6325 17.1212 40.5038 16.8637 40.2463C16.6063 39.9888 16.4775 39.6885 16.4775 39.3452C16.4775 39.1163 16.5348 38.9018 16.6492 38.7015C16.7636 38.5013 16.921 38.3439 17.1212 38.2295C17.3215 38.1151 17.536 38.0579 17.7649 38.0579H25.4887Z" fill="#C72127"/>
</svg>
