<svg width="53" height="54" viewBox="0 0 53 54" fill="none" xmlns="http://www.w3.org/2000/svg">
<path d="M34.1558 32.0102C34.2217 32.208 34.2217 32.3728 34.1558 32.5046L27.1353 46.3479C27.0034 46.6775 26.7727 46.8423 26.4431 46.8423C26.1135 46.8423 25.8828 46.6775 25.7509 46.3479L18.7304 32.5046C18.6645 32.3728 18.6645 32.208 18.7304 32.0102L20.9058 18.1669C20.9058 18.101 20.9058 18.0351 20.9058 17.9692L19.8181 2.74158C19.8181 2.47789 19.9005 2.26365 20.0653 2.09885C20.2301 1.93405 20.4114 1.85165 20.6091 1.85165H32.5737C32.8374 1.85165 33.0516 1.93405 33.2164 2.09885C33.3812 2.26365 33.4306 2.47789 33.3647 2.74158L32.0793 18.2658L34.1558 32.0102ZM31.6838 3.43374H21.4991L22.4879 17.4748H30.4972L31.6838 3.43374ZM24.9104 29.7854C24.9104 29.7854 25.0176 29.8925 25.2318 30.1068C25.446 30.321 25.8498 30.4281 26.4431 30.4281C27.0364 30.4281 27.5473 30.2139 27.9757 29.7854C28.4042 29.3569 28.6185 28.8461 28.6185 28.2528C28.6185 27.6595 28.4042 27.1321 27.9757 26.6707C27.5473 26.2092 27.0364 25.9785 26.4431 25.9785C25.8498 25.9785 25.3389 26.2092 24.9104 26.6707C24.482 27.1321 24.2677 27.6595 24.2677 28.2528C24.2677 28.8461 24.482 29.3569 24.9104 29.7854ZM27.2341 42.5905L32.5737 32.0102L30.4972 19.0569H22.389L20.3125 32.0102L25.652 42.5905V32.0102C25.0588 31.8784 24.5314 31.6312 24.07 31.2686C23.6085 30.9061 23.2459 30.4611 22.9823 29.9337C22.7186 29.4064 22.5867 28.8461 22.5867 28.2528C22.5867 27.198 22.9658 26.2916 23.7239 25.5336C24.482 24.7755 25.3884 24.3964 26.4431 24.3964C27.4978 24.3964 28.4042 24.7755 29.1623 25.5336C29.9204 26.2916 30.2994 27.198 30.2994 28.2528C30.2994 29.1757 30.0028 29.9832 29.4095 30.6753C28.8162 31.3675 28.0911 31.8125 27.2341 32.0102V42.5905ZM42.4617 46.5457C42.9891 46.5457 43.2528 46.8094 43.2528 47.3367V51.6875C43.2528 52.2148 42.9891 52.4785 42.4617 52.4785H38.111C37.5836 52.4785 37.32 52.2148 37.32 51.6875V50.3031H15.5662V51.6875C15.5662 52.2148 15.3025 52.4785 14.7752 52.4785H10.4244C9.89707 52.4785 9.63339 52.2148 9.63339 51.6875V47.3367C9.63339 46.8094 9.89707 46.5457 10.4244 46.5457H14.7752C15.3025 46.5457 15.5662 46.8094 15.5662 47.3367V48.7211H37.32V47.3367C37.32 46.8094 37.5836 46.5457 38.111 46.5457H42.4617ZM13.8853 50.8964V48.1278H11.2155V50.8964H13.8853ZM41.6707 50.8964V48.1278H39.0009V50.8964H41.6707ZM45.6259 27.8572C45.6259 27.264 45.8896 26.9673 46.417 26.9673C46.9443 26.9673 47.208 27.264 47.208 27.8572C47.208 33.5264 45.181 38.4045 41.1269 42.4916C37.0728 46.5786 32.1782 48.6222 26.4431 48.6222C22.6856 48.6222 19.2083 47.6828 16.0112 45.8041C12.814 43.9253 10.2926 41.4039 8.44682 38.2397C6.60105 35.0755 5.67816 31.6147 5.67816 27.8572C5.67816 27.264 5.94184 26.9673 6.46921 26.9673C6.99657 26.9673 7.26025 27.264 7.26025 27.8572C7.26025 33.1309 9.13898 37.6299 12.8964 41.3544C16.6539 45.079 21.1695 46.9412 26.4431 46.9412C31.7167 46.9412 36.2323 45.079 39.9897 41.3544C43.7472 37.6299 45.6259 33.1309 45.6259 27.8572Z" fill="#C72127"/>
</svg>
