<svg width="51" height="51" viewBox="0 0 51 51" fill="none" xmlns="http://www.w3.org/2000/svg">
<path d="M35.8908 1.7935C37.1346 1.7935 38.1918 2.22882 39.0625 3.09947C39.9331 3.97011 40.3684 5.02733 40.3684 6.27111V45.0771C40.3684 46.3209 39.9331 47.3781 39.0625 48.2487C38.1918 49.1194 37.1346 49.5547 35.8908 49.5547H14.9953C13.7515 49.5547 12.6943 49.1194 11.8237 48.2487C10.953 47.3781 10.5177 46.3209 10.5177 45.0771V6.27111C10.5177 5.02733 10.953 3.97011 11.8237 3.09947C12.6943 2.22882 13.7515 1.7935 14.9953 1.7935H35.8908ZM19.4729 4.0323V5.52484H31.4132V4.0323H19.4729ZM23.3442 45.6834C23.3442 45.6834 23.4919 45.8311 23.7873 46.1265C24.0827 46.4219 24.6346 46.5696 25.4431 46.5696C26.2515 46.5696 26.9512 46.2742 27.542 45.6834C28.1327 45.0926 28.4281 44.393 28.4281 43.5845C28.4281 42.7761 28.1327 42.0765 27.542 41.4857C26.9512 40.8949 26.2515 40.5995 25.4431 40.5995C24.6346 40.5995 23.935 40.8949 23.3442 41.4857C22.7534 42.0765 22.458 42.7761 22.458 43.5845C22.458 44.393 22.7534 45.0926 23.3442 45.6834ZM37.3834 37.6144V7.76364H13.5028V37.6144H37.3834Z" fill="#C72127"/>
</svg>
