<svg width="51" height="51" viewBox="0 0 51 51" fill="none" xmlns="http://www.w3.org/2000/svg">
<path d="M33.0924 24.7413C33.0924 24.7413 32.9369 24.7413 32.626 24.7413C32.315 24.7413 32.1596 24.4303 32.1596 23.8084C32.1596 23.1865 32.4705 22.8756 33.0924 22.8756C33.7143 22.8756 34.0252 23.1865 34.0252 23.8084C34.0252 24.4303 33.7143 24.7413 33.0924 24.7413ZM32.1596 28.5659C32.2839 27.944 32.6571 27.6797 33.279 27.773C33.9008 27.8663 34.1496 28.2238 34.0252 28.8457C33.8387 30.0895 33.2945 31.1778 32.3928 32.1107C31.491 33.0435 30.2939 33.7276 28.8013 34.1629C27.8685 34.4738 26.8735 34.6293 25.8163 34.6293C25.1322 34.6293 24.4792 34.5671 23.8573 34.4427C22.0538 34.0696 20.5613 33.2612 19.3797 32.0174C18.9444 31.5199 18.9599 31.069 19.4263 30.6648C19.8928 30.2605 20.3436 30.2761 20.779 30.7114C21.7118 31.7064 22.9245 32.3439 24.417 32.6237C25.9096 32.9036 27.2155 32.8258 28.3349 32.3905C30.6359 31.7064 31.9108 30.4316 32.1596 28.5659ZM46.2454 19.5174C48.2354 21.8806 49.1994 24.8345 49.1372 28.3793C49.075 30.8669 48.5464 33.3233 47.5513 35.7487C46.4319 38.2985 44.9083 40.5684 42.9804 42.5584C40.866 44.735 38.4096 46.4141 35.611 47.5957C32.5638 48.9017 29.2367 49.5547 25.6297 49.5547C22.2715 49.5547 19.0688 48.8862 16.0215 47.5491C12.9742 46.212 10.3312 44.2997 8.09239 41.8122C3.30383 36.6505 1.2205 30.4937 1.84239 23.342C2.3399 17.434 4.87411 12.3656 9.445 8.13678C14.0159 3.90792 19.2553 1.7935 25.1633 1.7935C26.9046 1.7935 28.0862 2.44648 28.7081 3.75245C29.33 5.05842 29.1434 6.3333 28.1484 7.57708C26.9046 9.1318 26.5936 10.7176 27.2155 12.3345C27.9618 11.8992 28.7081 11.4639 29.4543 11.0286C33.9319 8.41663 37.9742 6.51986 41.5812 5.33827C45.5613 3.97011 47.9245 3.93902 48.6707 5.24499C49.417 6.42658 48.5464 8.19897 46.0588 10.5622C44.3797 12.1791 42.1409 13.9204 39.3424 15.786C42.2031 16.3457 44.5041 17.5895 46.2454 19.5174ZM27.3088 14.4801C26.8735 14.7288 26.4693 14.9776 26.0961 15.2263C26.6558 15.9104 27.1533 16.6256 27.5887 17.3719C28.024 18.1803 28.3971 19.0199 28.7081 19.8905C30.2006 19.1442 31.6931 18.3358 33.1857 17.4651C34.2429 16.8432 35.3001 16.2214 36.3573 15.5995C39.7155 13.4228 42.3897 11.4017 44.3797 9.53603C46.0588 7.98131 46.9605 6.8619 47.0849 6.17782C46.3387 5.86688 44.5352 6.20892 41.6745 7.20394C38.3163 8.38553 34.5538 10.189 30.3872 12.6144C29.33 13.2363 28.3038 13.8582 27.3088 14.4801ZM27.029 20.7301C26.7802 19.9216 26.4382 19.1131 26.0028 18.3047C25.5675 17.6206 25.07 16.9676 24.5103 16.3457C22.0849 18.0248 20.126 19.5796 18.6334 21.0099C19.0066 21.3209 19.2864 21.6629 19.473 22.036C19.7217 22.4714 19.9083 22.9378 20.0327 23.4353C22.0227 22.8756 24.3548 21.9738 27.029 20.7301ZM47.2715 28.3793C47.3337 25.4564 46.5097 22.9222 44.7995 20.7767C43.0893 18.6312 40.4618 17.5273 36.917 17.4651H36.8237C35.9531 18.0248 35.0513 18.5845 34.1185 19.1442C32.1906 20.2015 30.325 21.1654 28.5215 22.036C25.2255 23.6529 22.3959 24.7724 20.0327 25.3942C19.7217 26.7624 18.9755 27.7885 17.7939 28.4726C16.9232 28.9701 15.1819 29.2189 12.57 29.2189C11.3262 29.2189 10.1135 29.1567 8.93194 29.0323C8.621 29.0323 8.37224 28.8924 8.18567 28.6125C7.99911 28.3327 7.99911 28.0373 8.18567 27.7263C10.1135 23.6219 11.7615 21.1654 13.1297 20.3569C14.3735 19.6728 15.6484 19.5485 16.9543 19.9838C18.6956 18.2425 21.0899 16.3457 24.1372 14.2935C24.5725 13.9825 25.0389 13.6716 25.5364 13.3607C24.5414 10.9975 24.9456 8.66539 26.7491 6.36439C27.2466 5.7425 27.3399 5.1517 27.029 4.592C26.718 3.97011 26.0961 3.65917 25.1633 3.65917C19.6906 3.65917 14.8554 5.60257 10.6577 9.48939C6.45993 13.3762 4.14339 18.0559 3.70806 23.5286C3.14836 30.1206 5.04513 35.7798 9.39836 40.5062C11.5128 42.8072 13.9848 44.5796 16.8144 45.8233C19.644 47.0671 22.5824 47.689 25.6297 47.689C31.9108 47.689 37.0725 45.7145 41.1148 41.7655C45.1571 37.8165 47.2093 33.3544 47.2715 28.3793ZM18.2603 24.5547C18.3225 23.995 18.1981 23.4664 17.8872 22.9689C17.6384 22.5335 17.2653 22.1915 16.7678 21.9427C15.8349 21.4452 14.9332 21.4763 14.0625 22.036C13.2541 22.4714 12.0414 24.2126 10.4245 27.2599C13.9071 27.4465 16.0526 27.291 16.861 26.7935C17.7317 26.296 18.1981 25.5497 18.2603 24.5547ZM15.5084 8.64984C15.5084 8.64984 15.6872 8.47104 16.0448 8.11346C16.4024 7.75587 17.0943 7.57708 18.1204 7.57708C19.1465 7.57708 20.0327 7.93466 20.779 8.64984C21.5252 9.36501 21.8984 10.2357 21.8984 11.2618C21.8984 12.2879 21.5252 13.1741 20.779 13.9204C20.0327 14.6666 19.1465 15.0398 18.1204 15.0398C17.0943 15.0398 16.2236 14.6666 15.5084 13.9204C14.7933 13.1741 14.4357 12.2879 14.4357 11.2618C14.4357 10.2357 14.7933 9.36501 15.5084 8.64984ZM16.861 12.6144C16.861 12.6144 16.9543 12.7077 17.1409 12.8942C17.3275 13.0808 17.6695 13.1741 18.167 13.1741C18.6645 13.1741 19.0999 12.9875 19.473 12.6144C19.8461 12.2413 20.0327 11.8059 20.0327 11.3084C20.0327 10.8109 19.8461 10.3756 19.473 10.0025C19.0999 9.62932 18.6645 9.44275 18.167 9.44275C17.6695 9.44275 17.2342 9.62932 16.861 10.0025C16.4879 10.3756 16.3013 10.8109 16.3013 11.3084C16.3013 11.8059 16.4879 12.2413 16.861 12.6144ZM10.8443 33.7431C10.8443 33.7431 11.023 33.5643 11.3806 33.2067C11.7382 32.8492 12.4301 32.6704 13.4562 32.6704C14.4823 32.6704 15.3685 33.0279 16.1148 33.7431C16.861 34.4583 17.2342 35.3289 17.2342 36.3551C17.2342 37.3812 16.861 38.2674 16.1148 39.0136C15.3685 39.7599 14.4823 40.133 13.4562 40.133C12.4301 40.133 11.5594 39.7599 10.8443 39.0136C10.1291 38.2674 9.77149 37.3812 9.77149 36.3551C9.77149 35.3289 10.1291 34.4583 10.8443 33.7431ZM12.1969 37.7077C12.1969 37.7077 12.2902 37.801 12.4767 37.9875C12.6633 38.1741 13.0053 38.2674 13.5028 38.2674C14.0004 38.2674 14.4357 38.0808 14.8088 37.7077C15.1819 37.3345 15.3685 36.8837 15.3685 36.3551C15.3685 35.8265 15.1819 35.3911 14.8088 35.0491C14.4357 34.7071 14.0004 34.536 13.5028 34.536C13.0053 34.536 12.57 34.7071 12.1969 35.0491C11.8237 35.3911 11.6372 35.8265 11.6372 36.3551C11.6372 36.8837 11.8237 37.3345 12.1969 37.7077ZM20.1726 39.3401C20.1726 39.3401 20.3514 39.1613 20.709 38.8038C21.0666 38.4462 21.7584 38.2674 22.7846 38.2674C23.8107 38.2674 24.6969 38.625 25.4431 39.3401C26.1894 40.0553 26.5625 40.926 26.5625 41.9521C26.5625 42.9782 26.1894 43.8644 25.4431 44.6107C24.6969 45.3569 23.8107 45.7301 22.7846 45.7301C21.7584 45.7301 20.8878 45.3569 20.1726 44.6107C19.4574 43.8644 19.0999 42.9782 19.0999 41.9521C19.0999 40.926 19.4574 40.0553 20.1726 39.3401ZM21.5252 43.3047C21.5252 43.3047 21.6185 43.398 21.8051 43.5845C21.9916 43.7711 22.3337 43.8644 22.8312 43.8644C23.3287 43.8644 23.764 43.6778 24.1372 43.3047C24.5103 42.9316 24.6969 42.4807 24.6969 41.9521C24.6969 41.4235 24.5103 40.9881 24.1372 40.6461C23.764 40.3041 23.3287 40.133 22.8312 40.133C22.3337 40.133 21.8984 40.3041 21.5252 40.6461C21.1521 40.9881 20.9655 41.4235 20.9655 41.9521C20.9655 42.4807 21.1521 42.9316 21.5252 43.3047ZM31.3666 37.4745C31.3666 37.4745 31.5454 37.2957 31.903 36.9381C32.2606 36.5805 32.9525 36.4017 33.9786 36.4017C35.0047 36.4017 35.8909 36.7593 36.6372 37.4745C37.3834 38.1896 37.7566 39.0603 37.7566 40.0864C37.7566 41.1125 37.3834 41.9987 36.6372 42.745C35.8909 43.4913 35.0202 43.8644 34.0252 43.8644C33.3411 43.8644 32.7193 43.6934 32.1596 43.3513C31.5999 43.0093 31.149 42.5429 30.8069 41.9521C30.4649 41.3613 30.2939 40.7549 30.2939 40.133C30.2939 39.0758 30.6515 38.1896 31.3666 37.4745ZM32.7193 41.439C32.7193 41.439 32.8125 41.5323 32.9991 41.7189C33.1857 41.9054 33.5277 41.9987 34.0252 41.9987C34.5227 41.9987 34.9581 41.8122 35.3312 41.439C35.7043 41.0659 35.8909 40.615 35.8909 40.0864C35.8909 39.5578 35.7043 39.1225 35.3312 38.7804C34.9581 38.4384 34.5227 38.2674 34.0252 38.2674C33.5277 38.2674 33.0924 38.4384 32.7193 38.7804C32.3461 39.1225 32.1596 39.5578 32.1596 40.0864C32.1596 40.615 32.3461 41.0659 32.7193 41.439ZM38.8293 28.1461C38.8293 28.1461 39.0081 27.9673 39.3657 27.6097C39.7233 27.2521 40.4151 27.0733 41.4413 27.0733C42.4674 27.0733 43.3536 27.4309 44.0999 28.1461C44.8461 28.8613 45.2193 29.7475 45.2193 30.8047C45.2193 31.4266 45.0482 32.0329 44.7062 32.6237C44.3642 33.2145 43.9133 33.6809 43.3536 34.023C42.7939 34.365 42.172 34.536 41.4879 34.536C40.8038 34.536 40.1819 34.365 39.6222 34.023C39.0625 33.6809 38.6117 33.2145 38.2696 32.6237C37.9276 32.0329 37.7566 31.4266 37.7566 30.8047C37.7566 29.7475 38.1142 28.8613 38.8293 28.1461ZM40.1819 32.1107C40.1819 32.1107 40.2752 32.2039 40.4618 32.3905C40.6484 32.5771 40.9904 32.6704 41.4879 32.6704C41.9854 32.6704 42.4207 32.4838 42.7939 32.1107C43.167 31.7375 43.3536 31.2867 43.3536 30.758C43.3536 30.2294 43.167 29.7941 42.7939 29.4521C42.4207 29.11 41.9854 28.939 41.4879 28.939C40.9904 28.939 40.5551 29.11 40.1819 29.4521C39.8088 29.7941 39.6222 30.2294 39.6222 30.758C39.6222 31.2867 39.8088 31.7375 40.1819 32.1107Z" fill="#C72127"/>
</svg>
