<svg width="46" height="47" viewBox="0 0 46 47" fill="none" xmlns="http://www.w3.org/2000/svg">
<path d="M43.3395 3.38607C43.7972 3.38607 44.1834 3.54341 44.4981 3.85808C44.8127 4.17276 44.9701 4.55896 44.9701 5.01667V35.8264C44.9701 36.2841 44.8127 36.6703 44.4981 36.985C44.1834 37.2996 43.7972 37.457 43.3395 37.457H27.9775V42.8637H34.5858C35.0435 42.8637 35.2723 43.0925 35.2723 43.5502C35.2723 44.008 35.0435 44.2368 34.5858 44.2368H11.4141C10.9564 44.2368 10.7275 44.008 10.7275 43.5502C10.7275 43.0925 10.9564 42.8637 11.4141 42.8637H18.0223V37.457H2.66038C2.20267 37.457 1.81648 37.2996 1.5018 36.985C1.18712 36.6703 1.02979 36.2841 1.02979 35.8264V5.01667C1.02979 4.55896 1.18712 4.17276 1.5018 3.85808C1.81648 3.54341 2.20267 3.38607 2.66038 3.38607H43.3395ZM26.6044 42.8637V37.457H19.3955V42.8637H26.6044ZM43.597 35.8264V5.01667C43.597 4.84502 43.5111 4.7592 43.3395 4.7592H2.66038C2.48874 4.7592 2.40292 4.84502 2.40292 5.01667V35.8264C2.40292 35.998 2.48874 36.0838 2.66038 36.0838H43.3395C43.5111 36.0838 43.597 35.998 43.597 35.8264ZM41.3656 30.4197C41.8233 30.4197 42.0522 30.6485 42.0522 31.1062C42.0522 31.5639 41.8233 31.7928 41.3656 31.7928H4.63426C4.17655 31.7928 3.9477 31.5639 3.9477 31.1062C3.9477 30.6485 4.17655 30.4197 4.63426 30.4197H41.3656ZM11.3283 28.0167C10.8706 28.0167 10.6417 27.7878 10.6417 27.3301V17.2032C10.6417 16.6883 10.8706 16.4308 11.3283 16.4308H15.0186C15.5335 16.4308 15.791 16.6883 15.791 17.2032V27.3301C15.791 27.7878 15.5335 28.0167 15.0186 28.0167H11.3283ZM12.0149 17.8898V26.6435H14.332V17.8898H12.0149ZM17.8507 28.0167C17.393 28.0167 17.1641 27.7878 17.1641 27.3301V13.8562C17.1641 13.3985 17.393 13.1697 17.8507 13.1697H21.6268C22.0845 13.1697 22.3134 13.3985 22.3134 13.8562V27.3301C22.3134 27.7878 22.0845 28.0167 21.6268 28.0167H17.8507ZM18.5372 14.5428V26.6435H20.8544V14.5428H18.5372ZM24.3731 28.0167C23.9154 28.0167 23.6865 27.7878 23.6865 27.3301V10.6808C23.6865 10.2231 23.9154 9.99428 24.3731 9.99428H28.1492C28.6069 9.99428 28.8358 10.2231 28.8358 10.6808V27.3301C28.8358 27.7878 28.6069 28.0167 28.1492 28.0167H24.3731ZM25.1455 11.4532V26.6435H27.4626V11.4532H25.1455ZM30.9813 28.0167C30.4664 28.0167 30.2089 27.7878 30.2089 27.3301V20.3786C30.2089 19.9209 30.4664 19.692 30.9813 19.692H34.6716C35.1293 19.692 35.3581 19.9209 35.3581 20.3786V27.3301C35.3581 27.7878 35.1293 28.0167 34.6716 28.0167H30.9813ZM31.6678 21.0652V26.6435H33.985V21.0652H31.6678Z" fill="#C72127"/>
</svg>
