<svg width="46" height="47" viewBox="0 0 46 47" fill="none" xmlns="http://www.w3.org/2000/svg">
<path d="M38.6193 21.8377C38.6193 21.8377 38.0472 22.4098 36.9029 23.5541C35.7586 24.6984 33.5702 25.2705 30.3376 25.2705C27.105 25.2705 24.3445 24.1263 22.0559 21.8377C19.7673 19.5492 18.6231 16.7886 18.6231 13.556C18.6231 10.3234 19.7673 7.56283 22.0559 5.27427C24.3445 2.98572 27.105 1.84144 30.3376 1.84144C33.5702 1.84144 36.3308 2.98572 38.6193 5.27427C40.9079 7.56283 42.0522 10.3234 42.0522 13.556C42.0522 16.7886 40.9079 19.5492 38.6193 21.8377ZM37.5895 6.30413C37.5895 6.30413 37.0889 5.8035 36.0876 4.80226C35.0864 3.80101 33.1697 3.30039 30.3376 3.30039C27.5055 3.30039 25.0882 4.30164 23.0858 6.30413C21.0833 8.30661 20.082 10.7239 20.082 13.556C20.082 16.3881 21.0833 18.8054 23.0858 20.8079C25.0882 22.8103 27.5055 23.8116 30.3376 23.8116C33.1697 23.8116 35.587 22.8103 37.5895 20.8079C39.592 18.8054 40.5932 16.3881 40.5932 13.556C40.5932 10.7239 39.592 8.30661 37.5895 6.30413ZM42.7817 31.2351C42.7817 31.2351 42.9748 31.2852 43.3609 31.3853C43.7471 31.4854 44.1405 31.8931 44.541 32.6082C44.9415 33.3234 45.0416 34.0672 44.8414 34.8396C44.6411 35.612 44.1977 36.1984 43.5111 36.5989L33.6417 42.778C32.097 43.8079 29.5223 44.3228 25.9178 44.3228C22.8855 44.3228 19.1094 43.0641 14.5895 40.5467C14.4751 40.4894 14.3034 40.4322 14.0746 40.375C13.8457 40.3178 13.388 40.232 12.7014 40.1176C12.0149 40.0031 11.2997 39.9459 10.5559 39.9459C10.041 39.9459 9.78352 39.7028 9.78352 39.2164C9.78352 38.7301 10.041 38.487 10.5559 38.487C12.6156 38.487 14.189 38.7444 15.2761 39.2593C19.6243 41.6623 23.1716 42.8638 25.9178 42.8638C29.2363 42.8638 31.5534 42.4061 32.8693 41.4907L42.7387 35.3116C43.1392 35.1399 43.3824 34.8539 43.4682 34.4534C43.554 34.0529 43.4968 33.681 43.2966 33.3377C43.0963 32.9944 42.796 32.7656 42.3955 32.6511C41.995 32.5367 41.6231 32.5939 41.2798 32.8228L32.8693 36.9422C31.7823 37.4571 29.7226 37.7146 26.6902 37.7146C24.6305 37.7146 22.1417 37.4571 19.2238 36.9422C18.7661 36.885 18.5659 36.6132 18.6231 36.1269C18.6803 35.6406 18.9664 35.4546 19.4813 35.5691C22.628 36.0268 25.031 36.2556 26.6902 36.2556C29.4937 36.2556 31.3246 36.0268 32.1828 35.5691L40.5932 31.5355C41.2798 31.135 42.0093 31.0348 42.7817 31.2351ZM30.2947 17.2034C30.5236 17.2034 30.7238 17.1605 30.8955 17.0746C31.0671 16.9888 31.2244 16.8887 31.3675 16.7743C31.5105 16.6598 31.6106 16.5168 31.6678 16.3452C31.7251 16.1735 31.7537 15.9733 31.7537 15.7444C31.7537 15.3439 31.6106 15.0006 31.3246 14.7146C31.0385 14.4285 30.6952 14.2855 30.2947 14.2855C29.7798 14.2855 29.2935 14.1567 28.8358 13.8993C28.378 13.6418 28.0205 13.2842 27.763 12.8265C27.5055 12.3688 27.3768 11.8825 27.3768 11.3676C27.3768 10.681 27.5914 10.0802 28.0205 9.56532C28.4496 9.05039 28.9788 8.70711 29.6081 8.53547V8.44965C29.6081 7.93472 29.8513 7.67726 30.3376 7.67726C30.8239 7.67726 31.0671 7.93472 31.0671 8.44965V8.53547C31.6965 8.70711 32.2114 9.05039 32.6119 9.56532C33.0124 10.0802 33.2126 10.681 33.2126 11.3676C33.2126 11.8253 32.9695 12.0541 32.4831 12.0541C31.9968 12.0541 31.7537 11.8253 31.7537 11.3676C31.7537 11.1959 31.7394 11.0386 31.7108 10.8955C31.6821 10.7525 31.6249 10.6238 31.5391 10.5093C31.4533 10.3949 31.3389 10.2948 31.1958 10.209C31.0528 10.1232 30.9098 10.0516 30.7667 9.99442C30.6237 9.93721 30.4664 9.9086 30.2947 9.9086C29.8942 9.9086 29.5509 10.0516 29.2649 10.3377C28.9788 10.6238 28.8358 10.9671 28.8358 11.3676C28.8358 11.7681 28.9788 12.1113 29.2649 12.3974C29.5509 12.6835 29.8942 12.8265 30.2947 12.8265C31.0957 12.8265 31.7823 13.1126 32.3544 13.6847C32.9266 14.2569 33.2126 14.9434 33.2126 15.7444C33.2126 16.431 33.0124 17.0317 32.6119 17.5467C32.2114 18.0616 31.6965 18.4049 31.0671 18.5765V18.6623C31.0671 19.1773 30.8239 19.4347 30.3376 19.4347C29.8513 19.4347 29.6081 19.1773 29.6081 18.6623V18.5765C28.9788 18.4049 28.4496 18.0616 28.0205 17.5467C27.5914 17.0317 27.3768 16.431 27.3768 15.7444C27.3768 15.2867 27.62 15.0579 28.1063 15.0579C28.5926 15.0579 28.8358 15.2867 28.8358 15.7444C28.8358 16.1449 28.9788 16.4882 29.2649 16.7743C29.5509 17.0603 29.8942 17.2034 30.2947 17.2034ZM6.17904 25.2705C6.75118 25.2705 7.2518 25.4851 7.6809 25.9142C8.11001 26.3433 8.32456 26.8725 8.32456 27.5019V43.5504C8.32456 44.1797 8.11001 44.709 7.6809 45.1381C7.2518 45.5672 6.75118 45.7817 6.17904 45.7817H1.80217C1.28725 45.7817 1.02979 45.5386 1.02979 45.0523C1.02979 44.5659 1.28725 44.3228 1.80217 44.3228H6.17904C6.63675 44.3228 6.86561 44.0653 6.86561 43.5504V27.5019C6.86561 26.987 6.63675 26.7295 6.17904 26.7295H1.80217C1.28725 26.7295 1.02979 26.4863 1.02979 26C1.02979 25.5137 1.28725 25.2705 1.80217 25.2705H6.17904ZM10.5559 29.6474C10.041 29.6474 9.78352 29.4043 9.78352 28.9179C9.78352 28.4316 10.041 28.1885 10.5559 28.1885H16.3917C17.3071 28.1885 18.7947 28.9894 20.8544 30.5914C22.6853 31.9074 23.8868 32.5653 24.4589 32.5653H28.8358C30.0372 32.5653 30.9527 32.88 31.582 33.5093C31.9253 33.8526 31.9253 34.1959 31.582 34.5392C31.4104 34.7108 31.2244 34.7967 31.0242 34.7967C30.8239 34.7967 30.6666 34.7108 30.5522 34.5392C30.1517 34.1959 29.5795 34.0243 28.8358 34.0243H24.4589C23.5435 34.0243 22.0559 33.2519 19.9962 31.7071C18.1654 30.334 16.9639 29.6474 16.3917 29.6474H10.5559ZM4.3768 40.2463C4.3768 40.2463 4.43401 40.2964 4.54844 40.3965C4.66287 40.4966 4.72008 40.704 4.72008 41.0187C4.72008 41.3334 4.60566 41.5908 4.3768 41.7911C4.14794 41.9913 3.89048 42.0914 3.60441 42.0914C3.31834 42.0914 3.06088 41.9913 2.83202 41.7911C2.60317 41.5908 2.48874 41.3334 2.48874 41.0187C2.48874 40.704 2.60317 40.4465 2.83202 40.2463C3.06088 40.046 3.31834 39.9459 3.60441 39.9459C3.89048 39.9459 4.14794 40.046 4.3768 40.2463Z" fill="#C72127"/>
</svg>
