<svg width="51" height="51" viewBox="0 0 51 51" fill="none" xmlns="http://www.w3.org/2000/svg">
<path d="M42.6073 4.31177C44.4729 4.31177 46.0588 4.85592 47.3647 5.94423C48.6707 7.03254 49.3237 8.72719 49.3237 11.0282V34.0692C49.3237 35.8727 48.7795 37.4274 47.6912 38.7334C46.6029 40.0394 44.9083 40.6924 42.6073 40.6924H29.9207V44.9834H32.4394C32.6881 44.9834 32.9213 45.0767 33.139 45.2633C33.3567 45.4498 33.4655 45.6986 33.4655 46.0095C33.4655 46.3205 33.3567 46.5692 33.139 46.7558C32.9213 46.9424 32.6881 47.0356 32.4394 47.0356H18.82C18.5712 47.0356 18.338 46.9424 18.1203 46.7558C17.9027 46.5692 17.7938 46.3205 17.7938 46.0095C17.7938 45.6986 17.9027 45.4498 18.1203 45.2633C18.338 45.0767 18.5712 44.9834 18.82 44.9834H20.9655V40.6924H8.27892C6.41325 40.6924 4.82743 40.1482 3.52146 39.0599C2.21549 37.9716 1.5625 36.308 1.5625 34.0692V11.0282C1.5625 8.72719 2.21549 7.03254 3.52146 5.94423C4.82743 4.85592 6.41325 4.31177 8.27892 4.31177H42.6073ZM27.8685 44.9834V40.6924H23.0177V44.9834H27.8685ZM47.2715 34.0692V32.5767H3.61474V34.0692C3.61474 35.313 3.92568 36.308 4.54757 37.0543C5.16947 37.8006 5.77581 38.2514 6.3666 38.4069C6.9574 38.5624 7.59484 38.6401 8.27892 38.6401H42.6073C43.9132 38.6401 44.9394 38.3292 45.6856 37.7073C46.4319 37.0854 46.8828 36.4791 47.0382 35.8883C47.1937 35.2975 47.2715 34.6911 47.2715 34.0692ZM47.2715 30.5245V11.0282C47.2715 10.0332 47.1004 9.20915 46.7584 8.55617C46.4164 7.90318 45.981 7.43677 45.4524 7.15691C44.9238 6.87706 44.4419 6.67495 44.0065 6.55057C43.5712 6.42619 43.1048 6.364 42.6073 6.364H8.27892C7.59484 6.364 6.9574 6.45729 6.3666 6.64385C5.77581 6.83042 5.16947 7.29684 4.54757 8.04311C3.92568 8.78938 3.61474 9.7844 3.61474 11.0282V30.5245H47.2715ZM40.6483 9.34908C41.0836 8.78938 41.5656 8.72719 42.0942 9.16251C42.6228 9.59783 42.7006 10.0643 42.3274 10.5618L33.8386 21.9424C33.6521 22.2533 33.3722 22.4088 32.9991 22.4088C32.6881 22.3466 32.4083 22.1911 32.1595 21.9424L28.5215 17.1849L22.5513 23.9013C22.4891 23.9635 22.3958 24.0257 22.2715 24.0879C21.7118 24.461 21.2453 24.3366 20.8722 23.7147L16.7677 16.6252L10.611 26.6998C10.5488 26.8242 10.4866 26.9175 10.4244 26.9797C9.98912 27.5394 9.50715 27.586 8.97854 27.1196C8.44994 26.6532 8.4033 26.1712 8.83862 25.6737L15.9282 14.1998C16.1769 13.8889 16.4879 13.7334 16.861 13.7334C17.2341 13.7334 17.514 13.8889 17.7006 14.1998L21.9916 21.5692L27.8685 14.9461C28.055 14.6973 28.3193 14.573 28.6614 14.573C29.0034 14.573 29.2677 14.6973 29.4543 14.9461L32.9991 19.6103L40.7416 9.34908H40.6483Z" fill="#C72127"/>
</svg>
