<svg width="50" height="50" viewBox="0 0 50 50" fill="none" xmlns="http://www.w3.org/2000/svg">
<path d="M32.2763 29.7574C32.3385 29.944 32.3385 30.0995 32.2763 30.2239L25.6532 43.2836C25.5288 43.5945 25.3111 43.75 25.0002 43.75C24.6893 43.75 24.4716 43.5945 24.3472 43.2836L17.7241 30.2239C17.6619 30.0995 17.6619 29.944 17.7241 29.7574L19.7763 16.6977C19.7763 16.6355 19.7763 16.5734 19.7763 16.5112L18.7502 2.1455C18.7502 1.89674 18.8279 1.69463 18.9834 1.53915C19.1389 1.38368 19.3099 1.30595 19.4965 1.30595H30.7838C31.0325 1.30595 31.2346 1.38368 31.3901 1.53915C31.5456 1.69463 31.5922 1.89674 31.53 2.1455L30.3174 16.791L32.2763 29.7574ZM29.9442 2.79848H20.336L21.2689 16.0448H28.8248L29.9442 2.79848ZM23.5543 27.6586C23.5543 27.6586 23.6554 27.7596 23.8575 27.9617C24.0596 28.1638 24.4405 28.2649 25.0002 28.2649C25.5599 28.2649 26.0419 28.0628 26.4461 27.6586C26.8503 27.2543 27.0524 26.7724 27.0524 26.2127C27.0524 25.653 26.8503 25.1554 26.4461 24.7201C26.0419 24.2848 25.5599 24.0671 25.0002 24.0671C24.4405 24.0671 23.9585 24.2848 23.5543 24.7201C23.1501 25.1554 22.948 25.653 22.948 26.2127C22.948 26.7724 23.1501 27.2543 23.5543 27.6586ZM25.7465 39.7388L30.7838 29.7574L28.8248 17.5373H21.1756L19.2166 29.7574L24.2539 39.7388V29.7574C23.6942 29.6331 23.1967 29.3999 22.7614 29.0578C22.3261 28.7158 21.984 28.296 21.7353 27.7985C21.4865 27.301 21.3621 26.7724 21.3621 26.2127C21.3621 25.2176 21.7197 24.3625 22.4349 23.6474C23.1501 22.9322 24.0052 22.5746 25.0002 22.5746C25.9952 22.5746 26.8503 22.9322 27.5655 23.6474C28.2807 24.3625 28.6383 25.2176 28.6383 26.2127C28.6383 27.0833 28.3584 27.8451 27.7987 28.4981C27.239 29.1511 26.5549 29.5709 25.7465 29.7574V39.7388ZM40.1121 43.4701C40.6096 43.4701 40.8584 43.7189 40.8584 44.2164V48.3209C40.8584 48.8184 40.6096 49.0671 40.1121 49.0671H36.0077C35.5101 49.0671 35.2614 48.8184 35.2614 48.3209V47.0149H14.739V48.3209C14.739 48.8184 14.4902 49.0671 13.9927 49.0671H9.88826C9.39074 49.0671 9.14199 48.8184 9.14199 48.3209V44.2164C9.14199 43.7189 9.39074 43.4701 9.88826 43.4701H13.9927C14.4902 43.4701 14.739 43.7189 14.739 44.2164V45.5224H35.2614V44.2164C35.2614 43.7189 35.5101 43.4701 36.0077 43.4701H40.1121ZM13.1532 47.5746V44.9627H10.6345V47.5746H13.1532ZM39.3659 47.5746V44.9627H36.8472V47.5746H39.3659ZM43.0972 25.8395C43.0972 25.2798 43.346 25 43.8435 25C44.341 25 44.5897 25.2798 44.5897 25.8395C44.5897 31.1878 42.6774 35.7898 38.8528 39.6455C35.0282 43.5012 30.4106 45.4291 25.0002 45.4291C21.4554 45.4291 18.1749 44.5429 15.1588 42.7705C12.1426 40.9981 9.76388 38.6194 8.02258 35.6343C6.28129 32.6492 5.41064 29.3843 5.41064 25.8395C5.41064 25.2798 5.6594 25 6.15691 25C6.65443 25 6.90318 25.2798 6.90318 25.8395C6.90318 30.8147 8.67557 35.0591 12.2203 38.5727C15.7651 42.0864 20.0251 43.8433 25.0002 43.8433C29.9753 43.8433 34.2353 42.0864 37.78 38.5727C41.3248 35.0591 43.0972 30.8147 43.0972 25.8395Z" fill="#C72127"/>
</svg>
