<svg width="51" height="51" viewBox="0 0 51 51" fill="none" xmlns="http://www.w3.org/2000/svg">
<path d="M16.7677 32.2039C16.7677 32.2039 16.7677 32.0485 16.7677 31.7375C16.7677 31.4266 17.0787 31.2711 17.7006 31.2711C18.3224 31.2711 18.6334 31.5821 18.6334 32.2039C18.6334 32.8258 18.3224 33.1368 17.7006 33.1368C17.0787 33.1368 16.7677 32.8258 16.7677 32.2039ZM46.5252 13.2674C47.2715 13.2674 47.9244 13.5472 48.4841 14.1069C49.0438 14.6666 49.3237 15.3196 49.3237 16.0659V46.7562C49.3237 47.5024 49.0438 48.1554 48.4841 48.7151C47.9244 49.2748 47.2715 49.5547 46.5252 49.5547H4.36101C3.61474 49.5547 2.96175 49.2748 2.40205 48.7151C1.84235 48.1554 1.5625 47.5024 1.5625 46.7562V16.0659C1.5625 15.5684 1.68688 15.102 1.93563 14.6666C2.18439 14.2313 2.52643 13.8893 2.96175 13.6405C3.39708 13.3918 3.86349 13.2674 4.36101 13.2674H31.2267L39.9953 4.49872H40.0886L41.3946 3.19275C42.2652 2.25991 43.3535 1.7935 44.6595 1.7935C45.9655 1.7935 47.0693 2.24437 47.9711 3.14611C48.8728 4.04785 49.3237 5.1517 49.3237 6.45767C49.3237 7.76364 48.8573 8.85195 47.9244 9.7226L46.6185 11.1219L44.4729 13.2674H46.5252ZM42.7006 4.49872L42.0476 5.1517L44.0065 7.11066L45.9655 9.06961L46.6185 8.41663C47.1782 7.85693 47.458 7.20394 47.458 6.45767C47.458 5.71141 47.1782 5.05842 46.6185 4.49872C46.0588 3.93902 45.4058 3.65917 44.6595 3.65917C43.9132 3.65917 43.2603 3.93902 42.7006 4.49872ZM40.7416 6.45767L27.1222 20.0771C29.0501 20.7612 30.356 22.0671 31.0401 23.995L44.6595 10.3756L40.7416 6.45767ZM24.5103 20.0771L25.6297 18.8644H14.9021V43.6778H43.7267V18.8644H38.8759L31.0401 26.6069C31.0401 26.6691 31.0401 26.7002 31.0401 26.7002H30.9468C30.9468 26.7002 30.9468 26.7313 30.9468 26.7935H30.8535C30.7914 26.7935 30.7603 26.8246 30.7603 26.8868L22.8312 29.7786C22.7068 29.8408 22.5824 29.8719 22.458 29.8719C22.2093 29.8719 22.0227 29.7786 21.8983 29.592C21.5874 29.2811 21.4941 28.939 21.6185 28.5659L24.2304 20.4502C24.2304 20.388 24.2615 20.3569 24.3237 20.3569V20.2636V20.1704C24.3237 20.1704 24.3548 20.1704 24.417 20.1704V20.0771C24.417 20.0771 24.4481 20.0771 24.5103 20.0771ZM25.8162 21.6629L23.9506 27.3532L29.4543 25.301C29.3299 24.3681 28.9257 23.5752 28.2416 22.9222C27.5575 22.2692 26.7491 21.8495 25.8162 21.6629ZM47.458 46.7562V16.0659C47.458 15.444 47.1471 15.133 46.5252 15.133H42.6073L40.7416 16.9987H44.6595C45.2814 16.9987 45.5923 17.3097 45.5923 17.9316V44.6107C45.5923 45.2325 45.2814 45.5435 44.6595 45.5435H13.9692C13.3473 45.5435 13.0364 45.2325 13.0364 44.6107V17.9316C13.0364 17.3097 13.3473 16.9987 13.9692 16.9987H27.4953L29.361 15.133H4.36101C3.73912 15.133 3.42817 15.444 3.42817 16.0659V46.7562C3.42817 47.3781 3.73912 47.689 4.36101 47.689H46.5252C47.1471 47.689 47.458 47.3781 47.458 46.7562ZM10.2379 18.8644C10.8598 18.8644 11.1707 19.1753 11.1707 19.7972C11.1707 20.4191 10.8598 20.7301 10.2379 20.7301H6.50653C5.88464 20.7301 5.57369 20.4191 5.57369 19.7972C5.57369 19.1753 5.88464 18.8644 6.50653 18.8644H10.2379ZM10.2379 22.5957C10.8598 22.5957 11.1707 22.9067 11.1707 23.5286C11.1707 24.1505 10.8598 24.4614 10.2379 24.4614H6.50653C5.88464 24.4614 5.57369 24.1505 5.57369 23.5286C5.57369 22.9067 5.88464 22.5957 6.50653 22.5957H10.2379ZM10.2379 37.801C10.8598 37.801 11.1707 38.1119 11.1707 38.7338C11.1707 39.3557 10.8598 39.6666 10.2379 39.6666H6.50653C5.88464 39.6666 5.57369 39.3557 5.57369 38.7338C5.57369 38.1119 5.88464 37.801 6.50653 37.801H10.2379ZM10.2379 41.5323C10.8598 41.5323 11.1707 41.8432 11.1707 42.4651C11.1707 43.087 10.8598 43.398 10.2379 43.398H6.50653C5.88464 43.398 5.57369 43.087 5.57369 42.4651C5.57369 41.8432 5.88464 41.5323 6.50653 41.5323H10.2379ZM6.41325 29.3122C6.41325 29.3122 6.55317 29.1722 6.83302 28.8924C7.11287 28.6125 7.62593 28.4726 8.3722 28.4726C9.11847 28.4726 9.77145 28.7524 10.3312 29.3122C10.8909 29.8719 11.1707 30.5248 11.1707 31.2711C11.1707 32.0174 10.8909 32.6704 10.3312 33.2301C9.77145 33.7898 9.11847 34.0696 8.3722 34.0696C7.62593 34.0696 6.97295 33.7898 6.41325 33.2301C5.85354 32.6704 5.57369 32.0174 5.57369 31.2711C5.57369 30.5248 5.85354 29.8719 6.41325 29.3122ZM7.43937 31.2711C7.43937 31.2711 7.43937 31.4266 7.43937 31.7375C7.43937 32.0485 7.75031 32.2039 8.3722 32.2039C8.99409 32.2039 9.30504 31.893 9.30504 31.2711C9.30504 30.6492 8.99409 30.3383 8.3722 30.3383C7.75031 30.3383 7.43937 30.6492 7.43937 31.2711ZM40.2752 33.4166C40.7727 32.9813 41.2236 32.9969 41.6278 33.4633C42.032 33.9297 42.0165 34.3806 41.5812 34.8159C40.5239 35.7487 39.3268 36.2151 37.9897 36.2151C36.6527 36.2151 35.4555 35.7487 34.3983 34.8159C32.968 33.4477 31.5376 33.4477 30.1073 34.8159C29.0501 35.7487 27.8996 36.2151 26.6558 36.2151C25.412 36.2151 24.2615 35.7487 23.2043 34.8159C22.769 34.3806 22.3025 34.1007 21.805 33.9763C21.1831 33.7898 20.9499 33.4011 21.1054 32.8103C21.2609 32.2195 21.6185 31.9863 22.1782 32.1107C23.0488 32.3594 23.8262 32.7947 24.5103 33.4166C25.9406 34.7226 27.371 34.7226 28.8013 33.4166C29.8585 32.4838 31.009 32.0174 32.2528 32.0174C33.4966 32.0174 34.6471 32.4838 35.7043 33.4166C36.3262 34.0385 37.0724 34.3495 37.9431 34.3495C38.8137 34.3495 39.5911 34.0385 40.2752 33.4166Z" fill="#C72127"/>
</svg>
