<svg width="16" height="16" viewBox="0 0 16 16" fill="none" xmlns="http://www.w3.org/2000/svg">
<g clip-path="url(#clip0_1_188)">
<path d="M10.8787 2.83581L15.4123 7.36939C15.5056 7.46267 15.5522 7.58394 15.5522 7.73319C15.5522 7.88245 15.5056 8.00372 15.4123 8.097L10.8787 12.6306C10.7854 12.7239 10.6642 12.7705 10.5149 12.7705C10.3657 12.7705 10.2444 12.7192 10.1511 12.6166C10.0578 12.514 10.0112 12.3927 10.0112 12.2528C10.0112 12.1129 10.0578 11.9963 10.1511 11.903L13.8172 8.23693H1.72761C1.63432 8.23693 1.55037 8.2136 1.47574 8.16696C1.40112 8.12032 1.34048 8.05969 1.29384 7.98506C1.2472 7.91043 1.22388 7.82648 1.22388 7.73319C1.22388 7.58394 1.27518 7.46267 1.37779 7.36939C1.48041 7.2761 1.59701 7.22946 1.72761 7.22946H13.8172L10.1511 3.56342C10.0578 3.47013 10.0112 3.35353 10.0112 3.2136C10.0112 3.07368 10.0578 2.95241 10.1511 2.8498C10.2444 2.74719 10.3657 2.69588 10.5149 2.69588C10.6642 2.69588 10.7854 2.74252 10.8787 2.83581Z" fill="white"/>
</g>
<defs>
<clipPath id="clip0_1_188">
<rect width="15.17" height="15" fill="white" transform="matrix(1 0 0 -1 0.803101 15.1772)"/>
</clipPath>
</defs>
</svg>
