<svg width="40" height="41" viewBox="0 0 40 41" fill="none" xmlns="http://www.w3.org/2000/svg">
<g opacity="0.999985">
<path d="M0 5.02002C0 2.2586 2.23858 0.0200195 5 0.0200195H40V40.02H5C2.23858 40.02 0 37.7814 0 35.02V5.02002Z" fill="#C52C29"/>
<path d="M26.1523 16.9614C26.2695 17.1021 26.3281 17.2603 26.3281 17.436C26.3281 17.6118 26.2637 17.7583 26.1348 17.8755C26.0059 17.9927 25.8535 18.0513 25.6777 18.0513C25.502 18.0513 25.3555 17.9927 25.2383 17.8755L20.6328 13.27V28.4575C20.6328 28.6216 20.5742 28.7681 20.457 28.897C20.3398 29.0259 20.1934 29.0903 20.0176 29.0903C19.8418 29.0903 19.6895 29.0259 19.5605 28.897C19.4316 28.7681 19.3672 28.6216 19.3672 28.4575V13.27L14.7617 17.8755C14.6445 17.9927 14.498 18.0513 14.3223 18.0513C14.1465 18.0513 13.9941 17.9868 13.8652 17.8579C13.7363 17.729 13.6719 17.5825 13.6719 17.4185C13.6719 17.2544 13.7305 17.1021 13.8477 16.9614L19.543 11.2661C19.6602 11.1489 19.8125 11.0903 20 11.0903C20.1875 11.0903 20.3398 11.1489 20.457 11.2661L26.1523 16.9614Z" fill="white"/>
</g>
</svg>
