<svg width="41" height="41" viewBox="0 0 41 41" fill="none" xmlns="http://www.w3.org/2000/svg">
<g opacity="0.999983">
<path d="M0.443115 5.53711C0.443115 2.77569 2.68169 0.537109 5.44312 0.537109H40.4431V40.5371H5.44312C2.68169 40.5371 0.443115 38.2985 0.443115 35.5371V5.53711Z" fill="#C52C29"/>
<path d="M26.5955 17.4785C26.7126 17.6191 26.7712 17.7773 26.7712 17.9531C26.7712 18.1289 26.7068 18.2754 26.5779 18.3926C26.449 18.5098 26.2966 18.5684 26.1208 18.5684C25.9451 18.5684 25.7986 18.5098 25.6814 18.3926L21.0759 13.7871V28.9746C21.0759 29.1387 21.0173 29.2852 20.9001 29.4141C20.783 29.543 20.6365 29.6074 20.4607 29.6074C20.2849 29.6074 20.1326 29.543 20.0037 29.4141C19.8748 29.2852 19.8103 29.1387 19.8103 28.9746V13.7871L15.2048 18.3926C15.0876 18.5098 14.9412 18.5684 14.7654 18.5684C14.5896 18.5684 14.4373 18.5039 14.3083 18.375C14.1794 18.2461 14.115 18.0996 14.115 17.9355C14.115 17.7715 14.1736 17.6191 14.2908 17.4785L19.9861 11.7832C20.1033 11.666 20.2556 11.6074 20.4431 11.6074C20.6306 11.6074 20.783 11.666 20.9001 11.7832L26.5955 17.4785Z" fill="white"/>
</g>
</svg>
