<svg width="51" height="51" viewBox="0 0 51 51" fill="none" xmlns="http://www.w3.org/2000/svg">
<rect x="0.943115" y="1.42725" width="49" height="49" rx="24.5" stroke="white"/>
<g clip-path="url(#clip0_1_69)">
<path d="M28.9197 19.6694L35.2478 25.9976C35.378 26.1278 35.4431 26.297 35.4431 26.5054C35.4431 26.7137 35.378 26.883 35.2478 27.0132L28.9197 33.3413C28.7895 33.4715 28.6202 33.5366 28.4119 33.5366C28.2035 33.5366 28.0343 33.465 27.9041 33.3218C27.7738 33.1785 27.7087 33.0093 27.7087 32.814C27.7087 32.6187 27.7738 32.4559 27.9041 32.3257L33.0212 27.2085H16.1462C16.016 27.2085 15.8988 27.1759 15.7947 27.1108C15.6905 27.0457 15.6059 26.9611 15.5408 26.8569C15.4757 26.7528 15.4431 26.6356 15.4431 26.5054C15.4431 26.297 15.5147 26.1278 15.658 25.9976C15.8012 25.8674 15.9639 25.8022 16.1462 25.8022H33.0212L27.9041 20.6851C27.7738 20.5549 27.7087 20.3921 27.7087 20.1968C27.7087 20.0015 27.7738 19.8322 27.9041 19.689C28.0343 19.5457 28.2035 19.4741 28.4119 19.4741C28.6202 19.4741 28.7895 19.5392 28.9197 19.6694Z" fill="white"/>
</g>
<defs>
<clipPath id="clip0_1_69">
<rect width="20" height="21" fill="white" transform="matrix(1 0 0 -1 15.4431 36.9272)"/>
</clipPath>
</defs>
</svg>
