<svg width="25" height="24" viewBox="0 0 25 24" fill="none" xmlns="http://www.w3.org/2000/svg">
<path d="M10.42 1.6C14.74 1.6 18.26 5.12 18.26 9.44C18.26 13.76 14.74 17.28 10.42 17.28C6.09998 17.28 2.57998 13.76 2.57998 9.44C2.57998 5.12 6.09998 1.6 10.42 1.6ZM10.42 0C5.20398 0 0.97998 4.224 0.97998 9.44C0.97998 14.656 5.20398 18.88 10.42 18.88C15.636 18.88 19.86 14.656 19.86 9.44C19.86 4.224 15.636 0 10.42 0Z" fill="white"/>
<path d="M16.0999 9.44001C16.0999 6.30401 13.5559 3.76001 10.4199 3.76001" stroke="white" stroke-width="1.6" stroke-miterlimit="10"/>
<path d="M16.3401 15.36L22.9801 22" stroke="white" stroke-width="1.6" stroke-miterlimit="10"/>
</svg>
